<?xml version="1.0" encoding="utf-8"?>
<!-- Generator: Adobe Illustrator 18.0.0, SVG Export Plug-In . SVG Version: 6.00 Build 0)  -->
<!DOCTYPE svg PUBLIC "-//W3C//DTD SVG 1.1//EN" "http://www.w3.org/Graphics/SVG/1.1/DTD/svg11.dtd">
<svg version="1.1" id="Layer_1" xmlns="http://www.w3.org/2000/svg" xmlns:xlink="http://www.w3.org/1999/xlink" x="0px" y="0px"
	 width="652.2px" height="450px" viewBox="-1060.2 -13 652.2 450" enable-background="new -1060.2 -13 652.2 450"
	 xml:space="preserve">
<g>
	<g>
		<rect x="-1059.3" y="2.8" fill="#FFFFFF" width="340.3" height="419.8"/>
	</g>
	<g>
		<g>
			<polygon fill="#D1D1D1" points="-718.1,423.5 -721.2,423.5 -721.2,421.7 -719.9,421.7 -719.9,420.4 -718.1,420.4 			"/>
		</g>
		<g>
			<path fill="#D1D1D1" d="M-725.7,423.5h-4.5v-1.8h4.5V423.5z M-734.7,423.5h-4.5v-1.8h4.5V423.5z M-743.6,423.5h-4.5v-1.8h4.5
				V423.5z M-752.6,423.5h-4.5v-1.8h4.5V423.5z M-761.5,423.5h-4.5v-1.8h4.5V423.5z M-770.5,423.5h-4.5v-1.8h4.5V423.5z
				 M-779.5,423.5h-4.5v-1.8h4.5V423.5z M-788.4,423.5h-4.5v-1.8h4.5V423.5z M-797.4,423.5h-4.5v-1.8h4.5V423.5z M-806.3,423.5h-4.5
				v-1.8h4.5V423.5z M-815.3,423.5h-4.5v-1.8h4.5V423.5z M-824.2,423.5h-4.5v-1.8h4.5V423.5z M-833.2,423.5h-4.5v-1.8h4.5V423.5z
				 M-842.1,423.5h-4.5v-1.8h4.5V423.5z M-851.1,423.5h-4.5v-1.8h4.5V423.5z M-860,423.5h-4.5v-1.8h4.5V423.5z M-869,423.5h-4.5
				v-1.8h4.5V423.5z M-877.9,423.5h-4.5v-1.8h4.5V423.5z M-886.9,423.5h-4.5v-1.8h4.5V423.5z M-895.9,423.5h-4.5v-1.8h4.5V423.5z
				 M-904.8,423.5h-4.5v-1.8h4.5V423.5z M-913.8,423.5h-4.5v-1.8h4.5V423.5z M-922.7,423.5h-4.5v-1.8h4.5V423.5z M-931.7,423.5h-4.5
				v-1.8h4.5V423.5z M-940.6,423.5h-4.5v-1.8h4.5V423.5z M-949.6,423.5h-4.5v-1.8h4.5V423.5z M-958.5,423.5h-4.5v-1.8h4.5V423.5z
				 M-967.5,423.5h-4.5v-1.8h4.5V423.5z M-976.4,423.5h-4.5v-1.8h4.5V423.5z M-985.4,423.5h-4.5v-1.8h4.5V423.5z M-994.4,423.5h-4.5
				v-1.8h4.5V423.5z M-1003.3,423.5h-4.5v-1.8h4.5V423.5z M-1012.3,423.5h-4.5v-1.8h4.5V423.5z M-1021.2,423.5h-4.5v-1.8h4.5V423.5z
				 M-1030.2,423.5h-4.5v-1.8h4.5V423.5z M-1039.1,423.5h-4.5v-1.8h4.5V423.5z M-1048.1,423.5h-4.5v-1.8h4.5V423.5z"/>
		</g>
		<g>
			<polygon fill="#D1D1D1" points="-1057,423.5 -1060.2,423.5 -1060.2,420.4 -1058.4,420.4 -1058.4,421.7 -1057,421.7 			"/>
		</g>
		<g>
			<path fill="#D1D1D1" d="M-1058.4,415.9h-1.8v-4.5h1.8V415.9z M-1058.4,407h-1.8v-4.5h1.8V407z M-1058.4,398h-1.8v-4.5h1.8V398z
				 M-1058.4,389.1h-1.8v-4.5h1.8V389.1z M-1058.4,380.2h-1.8v-4.5h1.8V380.2z M-1058.4,371.2h-1.8v-4.5h1.8V371.2z M-1058.4,362.3
				h-1.8v-4.5h1.8V362.3z M-1058.4,353.4h-1.8v-4.5h1.8V353.4z M-1058.4,344.4h-1.8V340h1.8V344.4z M-1058.4,335.5h-1.8v-4.5h1.8
				V335.5z M-1058.4,326.6h-1.8v-4.5h1.8V326.6z M-1058.4,317.7h-1.8v-4.5h1.8V317.7z M-1058.4,308.7h-1.8v-4.5h1.8V308.7z
				 M-1058.4,299.8h-1.8v-4.5h1.8V299.8z M-1058.4,290.9h-1.8v-4.5h1.8V290.9z M-1058.4,281.9h-1.8v-4.5h1.8V281.9z M-1058.4,273
				h-1.8v-4.5h1.8V273z M-1058.4,264.1h-1.8v-4.5h1.8V264.1z M-1058.4,255.1h-1.8v-4.5h1.8V255.1z M-1058.4,246.2h-1.8v-4.5h1.8
				V246.2z M-1058.4,237.3h-1.8v-4.5h1.8V237.3z M-1058.4,228.3h-1.8v-4.5h1.8V228.3z M-1058.4,219.4h-1.8v-4.5h1.8V219.4z
				 M-1058.4,210.5h-1.8V206h1.8V210.5z M-1058.4,201.5h-1.8v-4.5h1.8V201.5z M-1058.4,192.6h-1.8v-4.5h1.8V192.6z M-1058.4,183.7
				h-1.8v-4.5h1.8V183.7z M-1058.4,174.8h-1.8v-4.5h1.8V174.8z M-1058.4,165.8h-1.8v-4.5h1.8V165.8z M-1058.4,156.9h-1.8v-4.5h1.8
				V156.9z M-1058.4,148h-1.8v-4.5h1.8V148z M-1058.4,139h-1.8v-4.5h1.8V139z M-1058.4,130.1h-1.8v-4.5h1.8V130.1z M-1058.4,121.2
				h-1.8v-4.5h1.8V121.2z M-1058.4,112.2h-1.8v-4.5h1.8V112.2z M-1058.4,103.3h-1.8v-4.5h1.8V103.3z M-1058.4,94.4h-1.8v-4.5h1.8
				V94.4z M-1058.4,85.4h-1.8V81h1.8V85.4z M-1058.4,76.5h-1.8V72h1.8V76.5z M-1058.4,67.6h-1.8v-4.5h1.8V67.6z M-1058.4,58.6h-1.8
				v-4.5h1.8V58.6z M-1058.4,49.7h-1.8v-4.5h1.8V49.7z M-1058.4,40.8h-1.8v-4.5h1.8V40.8z M-1058.4,31.8h-1.8v-4.5h1.8V31.8z
				 M-1058.4,22.9h-1.8v-4.5h1.8V22.9z M-1058.4,14h-1.8V9.5h1.8V14z"/>
		</g>
		<g>
			<polygon fill="#D1D1D1" points="-1058.4,5 -1060.2,5 -1060.2,1.9 -1057,1.9 -1057,3.7 -1058.4,3.7 			"/>
		</g>
		<g>
			<path fill="#D1D1D1" d="M-725.7,3.7h-4.5V1.9h4.5V3.7z M-734.7,3.7h-4.5V1.9h4.5V3.7z M-743.6,3.7h-4.5V1.9h4.5V3.7z M-752.6,3.7
				h-4.5V1.9h4.5V3.7z M-761.5,3.7h-4.5V1.9h4.5V3.7z M-770.5,3.7h-4.5V1.9h4.5V3.7z M-779.5,3.7h-4.5V1.9h4.5V3.7z M-788.4,3.7
				h-4.5V1.9h4.5V3.7z M-797.4,3.7h-4.5V1.9h4.5V3.7z M-806.3,3.7h-4.5V1.9h4.5V3.7z M-815.3,3.7h-4.5V1.9h4.5V3.7z M-824.2,3.7
				h-4.5V1.9h4.5V3.7z M-833.2,3.7h-4.5V1.9h4.5V3.7z M-842.1,3.7h-4.5V1.9h4.5V3.7z M-851.1,3.7h-4.5V1.9h4.5V3.7z M-860,3.7h-4.5
				V1.9h4.5V3.7z M-869,3.7h-4.5V1.9h4.5V3.7z M-877.9,3.7h-4.5V1.9h4.5V3.7z M-886.9,3.7h-4.5V1.9h4.5V3.7z M-895.9,3.7h-4.5V1.9
				h4.5V3.7z M-904.8,3.7h-4.5V1.9h4.5V3.7z M-913.8,3.7h-4.5V1.9h4.5V3.7z M-922.7,3.7h-4.5V1.9h4.5V3.7z M-931.7,3.7h-4.5V1.9h4.5
				V3.7z M-940.6,3.7h-4.5V1.9h4.5V3.7z M-949.6,3.7h-4.5V1.9h4.5V3.7z M-958.5,3.7h-4.5V1.9h4.5V3.7z M-967.5,3.7h-4.5V1.9h4.5V3.7
				z M-976.4,3.7h-4.5V1.9h4.5V3.7z M-985.4,3.7h-4.5V1.9h4.5V3.7z M-994.4,3.7h-4.5V1.9h4.5V3.7z M-1003.3,3.7h-4.5V1.9h4.5V3.7z
				 M-1012.3,3.7h-4.5V1.9h4.5V3.7z M-1021.2,3.7h-4.5V1.9h4.5V3.7z M-1030.2,3.7h-4.5V1.9h4.5V3.7z M-1039.1,3.7h-4.5V1.9h4.5V3.7z
				 M-1048.1,3.7h-4.5V1.9h4.5V3.7z"/>
		</g>
		<g>
			<polygon fill="#D1D1D1" points="-718.1,5 -719.9,5 -719.9,3.7 -721.2,3.7 -721.2,1.9 -718.1,1.9 			"/>
		</g>
		<g>
			<path fill="#D1D1D1" d="M-718.1,415.9h-1.8v-4.5h1.8V415.9z M-718.1,407h-1.8v-4.5h1.8V407z M-718.1,398h-1.8v-4.5h1.8V398z
				 M-718.1,389.1h-1.8v-4.5h1.8V389.1z M-718.1,380.2h-1.8v-4.5h1.8V380.2z M-718.1,371.2h-1.8v-4.5h1.8V371.2z M-718.1,362.3h-1.8
				v-4.5h1.8V362.3z M-718.1,353.4h-1.8v-4.5h1.8V353.4z M-718.1,344.4h-1.8V340h1.8V344.4z M-718.1,335.5h-1.8v-4.5h1.8V335.5z
				 M-718.1,326.6h-1.8v-4.5h1.8V326.6z M-718.1,317.7h-1.8v-4.5h1.8V317.7z M-718.1,308.7h-1.8v-4.5h1.8V308.7z M-718.1,299.8h-1.8
				v-4.5h1.8V299.8z M-718.1,290.9h-1.8v-4.5h1.8V290.9z M-718.1,281.9h-1.8v-4.5h1.8V281.9z M-718.1,273h-1.8v-4.5h1.8V273z
				 M-718.1,264.1h-1.8v-4.5h1.8V264.1z M-718.1,255.1h-1.8v-4.5h1.8V255.1z M-718.1,246.2h-1.8v-4.5h1.8V246.2z M-718.1,237.3h-1.8
				v-4.5h1.8V237.3z M-718.1,228.3h-1.8v-4.5h1.8V228.3z M-718.1,219.4h-1.8v-4.5h1.8V219.4z M-718.1,210.5h-1.8V206h1.8V210.5z
				 M-718.1,201.5h-1.8v-4.5h1.8V201.5z M-718.1,192.6h-1.8v-4.5h1.8V192.6z M-718.1,183.7h-1.8v-4.5h1.8V183.7z M-718.1,174.7h-1.8
				v-4.5h1.8V174.7z M-718.1,165.8h-1.8v-4.5h1.8V165.8z M-718.1,156.9h-1.8v-4.5h1.8V156.9z M-718.1,148h-1.8v-4.5h1.8V148z
				 M-718.1,139h-1.8v-4.5h1.8V139z M-718.1,130.1h-1.8v-4.5h1.8V130.1z M-718.1,121.2h-1.8v-4.5h1.8V121.2z M-718.1,112.2h-1.8
				v-4.5h1.8V112.2z M-718.1,103.3h-1.8v-4.5h1.8V103.3z M-718.1,94.4h-1.8v-4.5h1.8V94.4z M-718.1,85.4h-1.8V81h1.8V85.4z
				 M-718.1,76.5h-1.8V72h1.8V76.5z M-718.1,67.6h-1.8v-4.5h1.8V67.6z M-718.1,58.6h-1.8v-4.5h1.8V58.6z M-718.1,49.7h-1.8v-4.5h1.8
				V49.7z M-718.1,40.8h-1.8v-4.5h1.8V40.8z M-718.1,31.8h-1.8v-4.5h1.8V31.8z M-718.1,22.9h-1.8v-4.5h1.8V22.9z M-718.1,14h-1.8
				V9.5h1.8V14z"/>
		</g>
	</g>
</g>
<g>
	<g>
		<rect x="-1033.6" y="55.3" fill="#FFFFFF" width="286" height="49.5"/>
	</g>
	<g>
		<g>
			<polygon fill="#D1D1D1" points="-746.7,105.7 -749.8,105.7 -749.8,103.9 -748.5,103.9 -748.5,102.6 -746.7,102.6 			"/>
		</g>
		<g>
			<path fill="#D1D1D1" d="M-754.3,105.7h-4.5v-1.8h4.5V105.7z M-763.2,105.7h-4.5v-1.8h4.5V105.7z M-772.2,105.7h-4.5v-1.8h4.5
				V105.7z M-781.1,105.7h-4.5v-1.8h4.5V105.7z M-790.1,105.7h-4.5v-1.8h4.5V105.7z M-799,105.7h-4.5v-1.8h4.5V105.7z M-807.9,105.7
				h-4.5v-1.8h4.5V105.7z M-816.9,105.7h-4.5v-1.8h4.5V105.7z M-825.8,105.7h-4.5v-1.8h4.5V105.7z M-834.7,105.7h-4.5v-1.8h4.5
				V105.7z M-843.7,105.7h-4.5v-1.8h4.5V105.7z M-852.6,105.7h-4.5v-1.8h4.5V105.7z M-861.6,105.7h-4.5v-1.8h4.5V105.7z
				 M-870.5,105.7h-4.5v-1.8h4.5V105.7z M-879.4,105.7h-4.5v-1.8h4.5V105.7z M-888.4,105.7h-4.5v-1.8h4.5V105.7z M-897.3,105.7h-4.5
				v-1.8h4.5V105.7z M-906.2,105.7h-4.5v-1.8h4.5V105.7z M-915.2,105.7h-4.5v-1.8h4.5V105.7z M-924.1,105.7h-4.5v-1.8h4.5V105.7z
				 M-933.1,105.7h-4.5v-1.8h4.5V105.7z M-942,105.7h-4.5v-1.8h4.5V105.7z M-950.9,105.7h-4.5v-1.8h4.5V105.7z M-959.9,105.7h-4.5
				v-1.8h4.5V105.7z M-968.8,105.7h-4.5v-1.8h4.5V105.7z M-977.7,105.7h-4.5v-1.8h4.5V105.7z M-986.7,105.7h-4.5v-1.8h4.5V105.7z
				 M-995.6,105.7h-4.5v-1.8h4.5V105.7z M-1004.6,105.7h-4.5v-1.8h4.5V105.7z M-1013.5,105.7h-4.5v-1.8h4.5V105.7z M-1022.4,105.7
				h-4.5v-1.8h4.5V105.7z"/>
		</g>
		<g>
			<polygon fill="#D1D1D1" points="-1031.4,105.7 -1034.5,105.7 -1034.5,102.6 -1032.7,102.6 -1032.7,103.9 -1031.4,103.9 			"/>
		</g>
		<g>
			<path fill="#D1D1D1" d="M-1032.7,98.5h-1.8v-4.1h1.8V98.5z M-1032.7,90.3h-1.8v-4.1h1.8V90.3z M-1032.7,82.1h-1.8V78h1.8V82.1z
				 M-1032.7,73.9h-1.8v-4.1h1.8V73.9z M-1032.7,65.8h-1.8v-4.1h1.8V65.8z"/>
		</g>
		<g>
			<polygon fill="#D1D1D1" points="-1032.7,57.6 -1034.5,57.6 -1034.5,54.4 -1031.4,54.4 -1031.4,56.2 -1032.7,56.2 			"/>
		</g>
		<g>
			<path fill="#D1D1D1" d="M-754.3,56.2h-4.5v-1.8h4.5V56.2z M-763.2,56.2h-4.5v-1.8h4.5V56.2z M-772.2,56.2h-4.5v-1.8h4.5V56.2z
				 M-781.1,56.2h-4.5v-1.8h4.5V56.2z M-790.1,56.2h-4.5v-1.8h4.5V56.2z M-799,56.2h-4.5v-1.8h4.5V56.2z M-807.9,56.2h-4.5v-1.8h4.5
				V56.2z M-816.9,56.2h-4.5v-1.8h4.5V56.2z M-825.8,56.2h-4.5v-1.8h4.5V56.2z M-834.7,56.2h-4.5v-1.8h4.5V56.2z M-843.7,56.2h-4.5
				v-1.8h4.5V56.2z M-852.6,56.2h-4.5v-1.8h4.5V56.2z M-861.6,56.2h-4.5v-1.8h4.5V56.2z M-870.5,56.2h-4.5v-1.8h4.5V56.2z
				 M-879.4,56.2h-4.5v-1.8h4.5V56.2z M-888.4,56.2h-4.5v-1.8h4.5V56.2z M-897.3,56.2h-4.5v-1.8h4.5V56.2z M-906.2,56.2h-4.5v-1.8
				h4.5V56.2z M-915.2,56.2h-4.5v-1.8h4.5V56.2z M-924.1,56.2h-4.5v-1.8h4.5V56.2z M-933.1,56.2h-4.5v-1.8h4.5V56.2z M-942,56.2
				h-4.5v-1.8h4.5V56.2z M-950.9,56.2h-4.5v-1.8h4.5V56.2z M-959.9,56.2h-4.5v-1.8h4.5V56.2z M-968.8,56.2h-4.5v-1.8h4.5V56.2z
				 M-977.7,56.2h-4.5v-1.8h4.5V56.2z M-986.7,56.2h-4.5v-1.8h4.5V56.2z M-995.6,56.2h-4.5v-1.8h4.5V56.2z M-1004.6,56.2h-4.5v-1.8
				h4.5V56.2z M-1013.5,56.2h-4.5v-1.8h4.5V56.2z M-1022.4,56.2h-4.5v-1.8h4.5V56.2z"/>
		</g>
		<g>
			<polygon fill="#D1D1D1" points="-746.7,57.6 -748.5,57.6 -748.5,56.2 -749.8,56.2 -749.8,54.4 -746.7,54.4 			"/>
		</g>
		<g>
			<path fill="#D1D1D1" d="M-746.7,98.5h-1.8v-4.1h1.8V98.5z M-746.7,90.3h-1.8v-4.1h1.8V90.3z M-746.7,82.1h-1.8V78h1.8V82.1z
				 M-746.7,73.9h-1.8v-4.1h1.8V73.9z M-746.7,65.8h-1.8v-4.1h1.8V65.8z"/>
		</g>
	</g>
</g>
<g>
	<path fill="#717877" d="M-924,87.9c0.8,0,1.5-0.1,2.1-0.4c0.5-0.3,0.8-0.7,0.8-1.4c0-0.3,0-0.6-0.1-0.8c-0.1-0.2-0.3-0.4-0.5-0.6
		c-0.2-0.2-0.5-0.4-0.9-0.5c-0.4-0.2-0.8-0.4-1.4-0.6c-0.4-0.2-0.8-0.4-1.2-0.5c-0.4-0.2-0.7-0.4-1-0.7c-0.3-0.2-0.5-0.5-0.7-0.9
		c-0.2-0.3-0.3-0.8-0.3-1.3c0-0.9,0.4-1.7,1.1-2.3c0.7-0.6,1.7-0.9,2.9-0.9c0.8,0,1.4,0.1,2,0.2c0.5,0.1,0.9,0.3,1.1,0.4l-0.3,1.3
		c-0.2-0.1-0.5-0.2-0.9-0.4c-0.4-0.1-1.1-0.2-1.9-0.2c-0.3,0-0.6,0-0.9,0.1c-0.3,0.1-0.6,0.2-0.8,0.3c-0.2,0.1-0.4,0.3-0.5,0.5
		c-0.1,0.2-0.2,0.5-0.2,0.8s0.1,0.6,0.2,0.8c0.1,0.2,0.3,0.4,0.5,0.6c0.2,0.2,0.5,0.3,0.9,0.5c0.3,0.1,0.7,0.3,1.2,0.5
		c0.4,0.2,0.9,0.4,1.3,0.5c0.4,0.2,0.8,0.4,1.1,0.7c0.3,0.3,0.6,0.6,0.8,0.9c0.2,0.4,0.3,0.8,0.3,1.4c0,1-0.4,1.8-1.2,2.4
		c-0.8,0.5-1.9,0.8-3.2,0.8c-1,0-1.8-0.1-2.3-0.3c-0.5-0.2-0.9-0.3-1.1-0.4l0.4-1.3c0,0,0.1,0.1,0.3,0.1c0.1,0.1,0.4,0.1,0.6,0.2
		c0.3,0.1,0.6,0.2,0.9,0.2C-924.9,87.8-924.4,87.9-924,87.9z"/>
	<path fill="#717877" d="M-907.8,88.5c-0.4,0.1-1,0.3-1.8,0.4c-0.7,0.1-1.6,0.2-2.7,0.2c-0.9,0-1.6-0.1-2.2-0.4
		c-0.6-0.3-1.1-0.6-1.4-1.1c-0.4-0.5-0.6-1-0.8-1.7c-0.2-0.7-0.2-1.4-0.2-2.2v-6.5h1.5v6c0,0.8,0.1,1.5,0.2,2.1
		c0.1,0.6,0.3,1,0.6,1.4c0.3,0.4,0.6,0.6,1,0.8c0.4,0.2,0.9,0.2,1.6,0.2c0.7,0,1.3,0,1.8-0.1c0.5-0.1,0.8-0.1,1-0.2V77.3h1.5V88.5z"
		/>
	<path fill="#717877" d="M-902.5,78c0.3-0.2,0.7-0.4,1.2-0.6s1.2-0.3,2-0.3c0.8,0,1.6,0.1,2.2,0.4c0.7,0.3,1.2,0.7,1.7,1.3
		c0.4,0.5,0.8,1.2,1,1.9c0.2,0.7,0.3,1.6,0.3,2.4c0,0.9-0.1,1.8-0.4,2.5c-0.3,0.7-0.7,1.4-1.2,1.9c-0.5,0.5-1.1,0.9-1.8,1.2
		c-0.7,0.3-1.5,0.4-2.3,0.4c-1,0-1.9-0.1-2.6-0.2c-0.7-0.1-1.2-0.3-1.7-0.4V71.7l1.5-0.3V78z M-902.5,87.5c0.2,0.1,0.6,0.1,1,0.2
		c0.4,0.1,1,0.1,1.7,0.1c1.3,0,2.3-0.4,3-1.2c0.8-0.8,1.1-2,1.1-3.5c0-0.6-0.1-1.3-0.2-1.8c-0.1-0.6-0.4-1.1-0.7-1.5
		c-0.3-0.4-0.7-0.8-1.2-1c-0.5-0.3-1.1-0.4-1.8-0.4c-0.3,0-0.7,0-1,0.1c-0.3,0.1-0.6,0.2-0.9,0.3c-0.3,0.1-0.5,0.2-0.7,0.3
		c-0.2,0.1-0.4,0.2-0.5,0.3V87.5z"/>
	<path fill="#717877" d="M-890.9,77.7c0.4-0.1,1-0.3,1.7-0.4c0.7-0.1,1.6-0.2,2.7-0.2c1.5,0,2.5,0.4,3.2,1.3
		c0.1-0.1,0.2-0.2,0.4-0.3s0.5-0.3,0.8-0.4c0.3-0.2,0.7-0.3,1.2-0.4c0.4-0.1,0.9-0.2,1.5-0.2c0.9,0,1.6,0.1,2.1,0.4
		c0.5,0.3,1,0.6,1.3,1.1c0.3,0.5,0.5,1,0.6,1.7c0.1,0.7,0.2,1.4,0.2,2.2v6.5h-1.5v-6c0-0.8,0-1.4-0.1-2c-0.1-0.6-0.2-1-0.4-1.4
		c-0.2-0.4-0.5-0.6-0.9-0.8c-0.4-0.2-0.9-0.3-1.5-0.3c-0.4,0-0.9,0-1.2,0.1c-0.4,0.1-0.7,0.2-1,0.3c-0.3,0.1-0.5,0.2-0.7,0.4
		c-0.2,0.1-0.3,0.2-0.4,0.3c0.1,0.4,0.2,0.8,0.3,1.3c0.1,0.5,0.1,1,0.1,1.5v6.6h-1.5v-6c0-0.8,0-1.4-0.1-2c-0.1-0.6-0.2-1-0.4-1.4
		c-0.2-0.4-0.5-0.6-0.9-0.8c-0.4-0.2-0.9-0.3-1.5-0.3c-0.7,0-1.3,0-1.8,0.1c-0.5,0.1-0.8,0.1-0.9,0.2v10.2h-1.5V77.7z"/>
	<path fill="#717877" d="M-869.7,73.8c0,0.3-0.1,0.6-0.3,0.8c-0.2,0.2-0.5,0.3-0.8,0.3c-0.3,0-0.6-0.1-0.8-0.3
		c-0.2-0.2-0.3-0.5-0.3-0.8c0-0.3,0.1-0.6,0.3-0.8c0.2-0.2,0.5-0.3,0.8-0.3c0.3,0,0.6,0.1,0.8,0.3
		C-869.8,73.2-869.7,73.4-869.7,73.8z M-870,88.9h-1.5V77.3h1.5V88.9z"/>
	<path fill="#717877" d="M-864.8,77.3h4.6v1.2h-4.6v6.2c0,0.7,0.1,1.2,0.2,1.6c0.1,0.4,0.3,0.7,0.5,1c0.2,0.2,0.5,0.4,0.8,0.4
		c0.3,0.1,0.6,0.1,1,0.1c0.6,0,1.1-0.1,1.5-0.2c0.4-0.1,0.7-0.3,0.9-0.4l0.4,1.2c-0.2,0.1-0.6,0.3-1.1,0.5c-0.5,0.2-1.1,0.3-1.7,0.3
		c-0.7,0-1.3-0.1-1.8-0.3c-0.5-0.2-0.9-0.5-1.2-0.9s-0.5-0.9-0.6-1.4c-0.1-0.6-0.2-1.2-0.2-2V73.9l1.5-0.3V77.3z"/>
</g>
<g>
	<g>
		<rect x="-1033.6" y="154.8" fill="#FFFFFF" width="286" height="49"/>
	</g>
	<g>
		<g>
			<polygon fill="#76C568" points="-746.7,157 -748.5,157 -748.5,155.7 -749.8,155.7 -749.8,153.9 -746.7,153.9 			"/>
		</g>
		<g>
			<path fill="#76C568" d="M-754.3,155.7h-4.5v-1.8h4.5V155.7z M-763.2,155.7h-4.5v-1.8h4.5V155.7z M-772.2,155.7h-4.5v-1.8h4.5
				V155.7z M-781.1,155.7h-4.5v-1.8h4.5V155.7z M-790.1,155.7h-4.5v-1.8h4.5V155.7z M-799,155.7h-4.5v-1.8h4.5V155.7z M-807.9,155.7
				h-4.5v-1.8h4.5V155.7z M-816.9,155.7h-4.5v-1.8h4.5V155.7z M-825.8,155.7h-4.5v-1.8h4.5V155.7z M-834.7,155.7h-4.5v-1.8h4.5
				V155.7z M-843.7,155.7h-4.5v-1.8h4.5V155.7z M-852.6,155.7h-4.5v-1.8h4.5V155.7z M-861.6,155.7h-4.5v-1.8h4.5V155.7z
				 M-870.5,155.7h-4.5v-1.8h4.5V155.7z M-879.4,155.7h-4.5v-1.8h4.5V155.7z M-888.4,155.7h-4.5v-1.8h4.5V155.7z M-897.3,155.7h-4.5
				v-1.8h4.5V155.7z M-906.2,155.7h-4.5v-1.8h4.5V155.7z M-915.2,155.7h-4.5v-1.8h4.5V155.7z M-924.1,155.7h-4.5v-1.8h4.5V155.7z
				 M-933.1,155.7h-4.5v-1.8h4.5V155.7z M-942,155.7h-4.5v-1.8h4.5V155.7z M-950.9,155.7h-4.5v-1.8h4.5V155.7z M-959.9,155.7h-4.5
				v-1.8h4.5V155.7z M-968.8,155.7h-4.5v-1.8h4.5V155.7z M-977.7,155.7h-4.5v-1.8h4.5V155.7z M-986.7,155.7h-4.5v-1.8h4.5V155.7z
				 M-995.6,155.7h-4.5v-1.8h4.5V155.7z M-1004.6,155.7h-4.5v-1.8h4.5V155.7z M-1013.5,155.7h-4.5v-1.8h4.5V155.7z M-1022.4,155.7
				h-4.5v-1.8h4.5V155.7z"/>
		</g>
		<g>
			<polygon fill="#76C568" points="-1032.7,157 -1034.5,157 -1034.5,153.9 -1031.4,153.9 -1031.4,155.7 -1032.7,155.7 			"/>
		</g>
		<g>
			<path fill="#76C568" d="M-1032.7,196.6h-1.8v-5h1.8V196.6z M-1032.7,186.7h-1.8v-5h1.8V186.7z M-1032.7,176.8h-1.8v-5h1.8V176.8z
				 M-1032.7,166.9h-1.8v-5h1.8V166.9z"/>
		</g>
		<g>
			<polygon fill="#76C568" points="-1031.4,204.7 -1034.5,204.7 -1034.5,201.6 -1032.7,201.6 -1032.7,202.9 -1031.4,202.9 			"/>
		</g>
		<g>
			<path fill="#76C568" d="M-754.3,204.7h-4.5v-1.8h4.5V204.7z M-763.2,204.7h-4.5v-1.8h4.5V204.7z M-772.2,204.7h-4.5v-1.8h4.5
				V204.7z M-781.1,204.7h-4.5v-1.8h4.5V204.7z M-790.1,204.7h-4.5v-1.8h4.5V204.7z M-799,204.7h-4.5v-1.8h4.5V204.7z M-807.9,204.7
				h-4.5v-1.8h4.5V204.7z M-816.9,204.7h-4.5v-1.8h4.5V204.7z M-825.8,204.7h-4.5v-1.8h4.5V204.7z M-834.7,204.7h-4.5v-1.8h4.5
				V204.7z M-843.7,204.7h-4.5v-1.8h4.5V204.7z M-852.6,204.7h-4.5v-1.8h4.5V204.7z M-861.6,204.7h-4.5v-1.8h4.5V204.7z
				 M-870.5,204.7h-4.5v-1.8h4.5V204.7z M-879.4,204.7h-4.5v-1.8h4.5V204.7z M-888.4,204.7h-4.5v-1.8h4.5V204.7z M-897.3,204.7h-4.5
				v-1.8h4.5V204.7z M-906.2,204.7h-4.5v-1.8h4.5V204.7z M-915.2,204.7h-4.5v-1.8h4.5V204.7z M-924.1,204.7h-4.5v-1.8h4.5V204.7z
				 M-933.1,204.7h-4.5v-1.8h4.5V204.7z M-942,204.7h-4.5v-1.8h4.5V204.7z M-950.9,204.7h-4.5v-1.8h4.5V204.7z M-959.9,204.7h-4.5
				v-1.8h4.5V204.7z M-968.8,204.7h-4.5v-1.8h4.5V204.7z M-977.7,204.7h-4.5v-1.8h4.5V204.7z M-986.7,204.7h-4.5v-1.8h4.5V204.7z
				 M-995.6,204.7h-4.5v-1.8h4.5V204.7z M-1004.6,204.7h-4.5v-1.8h4.5V204.7z M-1013.5,204.7h-4.5v-1.8h4.5V204.7z M-1022.4,204.7
				h-4.5v-1.8h4.5V204.7z"/>
		</g>
		<g>
			<polygon fill="#76C568" points="-746.7,204.7 -749.8,204.7 -749.8,202.9 -748.5,202.9 -748.5,201.6 -746.7,201.6 			"/>
		</g>
		<g>
			<path fill="#76C568" d="M-746.7,196.6h-1.8v-5h1.8V196.6z M-746.7,186.7h-1.8v-5h1.8V186.7z M-746.7,176.8h-1.8v-5h1.8V176.8z
				 M-746.7,166.9h-1.8v-5h1.8V166.9z"/>
		</g>
	</g>
</g>
<g>
	<path fill="#717877" d="M-953,181.5c0,0.9-0.1,1.7-0.4,2.5c-0.3,0.7-0.6,1.4-1.1,1.9c-0.5,0.5-1,0.9-1.7,1.2
		c-0.6,0.3-1.4,0.4-2.1,0.4c-0.8,0-1.5-0.1-2.1-0.4c-0.6-0.3-1.2-0.7-1.7-1.2c-0.5-0.5-0.8-1.2-1.1-1.9c-0.3-0.7-0.4-1.6-0.4-2.5
		c0-0.9,0.1-1.7,0.4-2.5c0.3-0.7,0.6-1.4,1.1-1.9c0.5-0.5,1-0.9,1.7-1.2c0.6-0.3,1.4-0.4,2.1-0.4c0.8,0,1.5,0.1,2.1,0.4
		c0.6,0.3,1.2,0.7,1.7,1.2c0.5,0.5,0.8,1.2,1.1,1.9C-953.2,179.7-953,180.6-953,181.5z M-954.6,181.5c0-1.5-0.3-2.6-1-3.5
		c-0.7-0.9-1.6-1.3-2.7-1.3c-1.2,0-2.1,0.4-2.7,1.3c-0.7,0.9-1,2-1,3.5c0,1.5,0.3,2.6,1,3.5c0.7,0.9,1.6,1.3,2.7,1.3
		c1.2,0,2.1-0.4,2.7-1.3C-954.9,184.1-954.6,182.9-954.6,181.5z"/>
	<path fill="#717877" d="M-949.9,176.1c0.4-0.1,1-0.3,1.8-0.4s1.6-0.2,2.7-0.2c0.9,0,1.6,0.1,2.2,0.4c0.6,0.3,1.1,0.6,1.4,1.1
		c0.4,0.5,0.6,1,0.8,1.7c0.1,0.7,0.2,1.4,0.2,2.2v6.5h-1.5v-6c0-0.8-0.1-1.5-0.2-2.1c-0.1-0.6-0.3-1-0.6-1.4c-0.3-0.4-0.6-0.6-1-0.8
		c-0.4-0.2-1-0.2-1.6-0.2c-0.7,0-1.3,0-1.8,0.1c-0.5,0.1-0.8,0.1-1,0.2v10.2h-1.5V176.1z"/>
	<path fill="#717877" d="M-933.6,186.3c1.2,0,2.2-0.2,2.8-0.7c0.7-0.4,1-1.2,1-2.1c0-0.6-0.1-1-0.3-1.4s-0.5-0.7-0.9-1
		c-0.4-0.3-0.8-0.5-1.2-0.7c-0.5-0.2-1-0.4-1.5-0.6c-0.6-0.3-1.2-0.5-1.7-0.8c-0.5-0.3-0.9-0.6-1.3-0.9c-0.4-0.3-0.6-0.7-0.8-1.2
		c-0.2-0.4-0.3-0.9-0.3-1.5c0-1.3,0.4-2.3,1.3-3c0.9-0.7,2.1-1,3.7-1c0.4,0,0.8,0,1.2,0.1c0.4,0.1,0.8,0.1,1.1,0.2
		c0.4,0.1,0.7,0.2,1,0.3c0.3,0.1,0.5,0.2,0.7,0.4l-0.5,1.3c-0.4-0.3-1-0.5-1.6-0.7c-0.6-0.2-1.3-0.3-2-0.3c-0.5,0-0.9,0-1.4,0.1
		c-0.4,0.1-0.8,0.3-1.1,0.5c-0.3,0.2-0.5,0.5-0.7,0.8c-0.2,0.3-0.3,0.7-0.3,1.2c0,0.5,0.1,0.9,0.3,1.2c0.2,0.3,0.4,0.6,0.8,0.9
		c0.3,0.2,0.7,0.5,1.1,0.7c0.4,0.2,0.9,0.4,1.4,0.6c0.6,0.3,1.2,0.5,1.7,0.8c0.5,0.3,1,0.6,1.4,0.9c0.4,0.3,0.7,0.8,1,1.3
		c0.2,0.5,0.4,1.1,0.4,1.8c0,1.4-0.5,2.5-1.5,3.2c-1,0.7-2.3,1.1-4,1.1c-0.6,0-1.1,0-1.6-0.1c-0.5-0.1-0.9-0.2-1.3-0.3
		c-0.4-0.1-0.7-0.2-1-0.3c-0.3-0.1-0.5-0.2-0.6-0.3l0.5-1.3c0.1,0.1,0.4,0.2,0.6,0.3c0.3,0.1,0.6,0.2,0.9,0.3
		c0.3,0.1,0.7,0.2,1.2,0.3C-934.6,186.2-934.2,186.3-933.6,186.3z"/>
	<path fill="#717877" d="M-924.1,175.6h4.6v1.2h-4.6v6.2c0,0.7,0.1,1.2,0.2,1.6c0.1,0.4,0.3,0.7,0.5,1c0.2,0.2,0.5,0.4,0.8,0.4
		c0.3,0.1,0.6,0.1,1,0.1c0.6,0,1.1-0.1,1.5-0.2c0.4-0.1,0.7-0.3,0.9-0.4l0.4,1.2c-0.2,0.1-0.6,0.3-1.1,0.5c-0.5,0.2-1.1,0.3-1.7,0.3
		c-0.7,0-1.3-0.1-1.8-0.3c-0.5-0.2-0.9-0.5-1.2-0.9c-0.3-0.4-0.5-0.9-0.6-1.4c-0.1-0.6-0.2-1.2-0.2-2v-10.7l1.5-0.3V175.6z"/>
	<path fill="#717877" d="M-913.3,175.4c0.8,0,1.4,0.1,1.9,0.3c0.5,0.2,1,0.5,1.3,0.9c0.3,0.4,0.6,0.8,0.7,1.4
		c0.1,0.5,0.2,1.1,0.2,1.7v7.3c-0.1,0-0.4,0.1-0.7,0.1c-0.3,0.1-0.6,0.1-1,0.2c-0.4,0.1-0.8,0.1-1.2,0.1c-0.5,0-0.9,0.1-1.4,0.1
		c-0.6,0-1.2-0.1-1.7-0.2c-0.5-0.1-1-0.3-1.3-0.6c-0.4-0.3-0.7-0.7-0.9-1.1c-0.2-0.5-0.3-1-0.3-1.7c0-0.6,0.1-1.2,0.4-1.6
		c0.2-0.4,0.6-0.8,1-1.1c0.4-0.3,1-0.5,1.6-0.6c0.6-0.1,1.3-0.2,2-0.2c0.2,0,0.4,0,0.7,0c0.2,0,0.5,0.1,0.7,0.1
		c0.2,0,0.4,0.1,0.6,0.1c0.2,0,0.3,0.1,0.3,0.1v-0.7c0-0.4,0-0.8-0.1-1.2c-0.1-0.4-0.2-0.7-0.4-1c-0.2-0.3-0.5-0.6-0.9-0.7
		c-0.4-0.2-0.8-0.3-1.4-0.3c-0.9,0-1.5,0.1-1.9,0.2c-0.4,0.1-0.7,0.2-0.9,0.3l-0.2-1.3c0.3-0.1,0.6-0.2,1.2-0.3
		C-914.6,175.4-914,175.4-913.3,175.4z M-913.1,186.2c0.6,0,1.1,0,1.5-0.1c0.4,0,0.8-0.1,1.1-0.1v-4.1c-0.2-0.1-0.4-0.2-0.8-0.2
		c-0.4-0.1-0.9-0.1-1.5-0.1c-0.4,0-0.7,0-1.1,0.1c-0.4,0.1-0.7,0.2-1.1,0.3c-0.3,0.2-0.6,0.4-0.8,0.7c-0.2,0.3-0.3,0.7-0.3,1.2
		c0,0.4,0.1,0.8,0.2,1.1c0.1,0.3,0.3,0.5,0.6,0.7c0.3,0.2,0.6,0.3,0.9,0.4C-914,186.2-913.6,186.2-913.1,186.2z"/>
	<path fill="#717877" d="M-901.4,175.4c0.5,0,0.9,0,1.4,0.1c0.4,0.1,0.7,0.2,0.9,0.2l-0.3,1.3c-0.1-0.1-0.4-0.1-0.7-0.2
		s-0.9-0.1-1.4-0.1c-0.6,0-1.1,0-1.5,0.1c-0.4,0.1-0.6,0.2-0.8,0.2v10.2h-1.5v-11.1c0.4-0.2,0.9-0.3,1.5-0.5
		C-903.1,175.5-902.3,175.4-901.4,175.4z"/>
	<path fill="#717877" d="M-895.6,175.6h4.6v1.2h-4.6v6.2c0,0.7,0.1,1.2,0.2,1.6c0.1,0.4,0.3,0.7,0.5,1c0.2,0.2,0.5,0.4,0.8,0.4
		c0.3,0.1,0.6,0.1,1,0.1c0.6,0,1.1-0.1,1.5-0.2c0.4-0.1,0.7-0.3,0.9-0.4l0.4,1.2c-0.2,0.1-0.6,0.3-1.1,0.5c-0.5,0.2-1.1,0.3-1.7,0.3
		c-0.7,0-1.3-0.1-1.8-0.3c-0.5-0.2-0.9-0.5-1.2-0.9c-0.3-0.4-0.5-0.9-0.6-1.4c-0.1-0.6-0.2-1.2-0.2-2v-10.7l1.5-0.3V175.6z"/>
	<path fill="#717877" d="M-884.8,186.3c1.2,0,2.2-0.2,2.8-0.7c0.7-0.4,1-1.2,1-2.1c0-0.6-0.1-1-0.3-1.4s-0.5-0.7-0.9-1
		c-0.4-0.3-0.8-0.5-1.2-0.7c-0.5-0.2-0.9-0.4-1.5-0.6c-0.6-0.3-1.2-0.5-1.7-0.8c-0.5-0.3-0.9-0.6-1.3-0.9c-0.4-0.3-0.6-0.7-0.8-1.2
		c-0.2-0.4-0.3-0.9-0.3-1.5c0-1.3,0.4-2.3,1.3-3c0.9-0.7,2.1-1,3.7-1c0.4,0,0.8,0,1.2,0.1c0.4,0.1,0.8,0.1,1.1,0.2
		c0.4,0.1,0.7,0.2,1,0.3c0.3,0.1,0.5,0.2,0.7,0.4l-0.5,1.3c-0.4-0.3-1-0.5-1.6-0.7c-0.6-0.2-1.3-0.3-2-0.3c-0.5,0-0.9,0-1.4,0.1
		c-0.4,0.1-0.8,0.3-1.1,0.5c-0.3,0.2-0.5,0.5-0.7,0.8c-0.2,0.3-0.3,0.7-0.3,1.2c0,0.5,0.1,0.9,0.3,1.2c0.2,0.3,0.4,0.6,0.8,0.9
		c0.3,0.2,0.7,0.5,1.1,0.7c0.4,0.2,0.9,0.4,1.4,0.6c0.6,0.3,1.2,0.5,1.7,0.8c0.5,0.3,1,0.6,1.4,0.9c0.4,0.3,0.7,0.8,1,1.3
		c0.2,0.5,0.4,1.1,0.4,1.8c0,1.4-0.5,2.5-1.5,3.2c-1,0.7-2.3,1.1-4,1.1c-0.6,0-1.1,0-1.6-0.1c-0.5-0.1-0.9-0.2-1.3-0.3
		c-0.4-0.1-0.7-0.2-1-0.3c-0.3-0.1-0.5-0.2-0.6-0.3l0.5-1.3c0.2,0.1,0.4,0.2,0.6,0.3c0.3,0.1,0.6,0.2,0.9,0.3
		c0.3,0.1,0.7,0.2,1.2,0.3C-885.8,186.2-885.3,186.3-884.8,186.3z"/>
	<path fill="#717877" d="M-867.7,186.9c-0.4,0.1-1,0.3-1.8,0.4c-0.7,0.1-1.6,0.2-2.7,0.2c-0.9,0-1.6-0.1-2.2-0.4s-1.1-0.6-1.4-1.1
		c-0.4-0.5-0.6-1-0.8-1.7c-0.2-0.7-0.2-1.4-0.2-2.2v-6.5h1.5v6c0,0.8,0.1,1.5,0.2,2.1c0.1,0.6,0.3,1,0.6,1.4c0.3,0.4,0.6,0.6,1,0.8
		c0.4,0.2,0.9,0.2,1.6,0.2c0.7,0,1.3,0,1.8-0.1c0.5-0.1,0.8-0.1,1-0.2v-10.2h1.5V186.9z"/>
	<path fill="#717877" d="M-862.4,176.3c0.3-0.2,0.7-0.4,1.2-0.6c0.6-0.2,1.2-0.3,2-0.3c0.8,0,1.6,0.1,2.2,0.4s1.2,0.7,1.7,1.3
		c0.4,0.5,0.8,1.2,1,1.9c0.2,0.7,0.3,1.6,0.3,2.4c0,0.9-0.1,1.8-0.4,2.5c-0.3,0.7-0.7,1.4-1.2,1.9c-0.5,0.5-1.1,0.9-1.8,1.2
		c-0.7,0.3-1.5,0.4-2.3,0.4c-1,0-1.9-0.1-2.6-0.2c-0.7-0.1-1.2-0.3-1.7-0.4v-16.8l1.5-0.3V176.3z M-862.4,185.9
		c0.2,0.1,0.6,0.1,1,0.2c0.4,0.1,1,0.1,1.7,0.1c1.3,0,2.3-0.4,3-1.2c0.8-0.8,1.1-2,1.1-3.5c0-0.6-0.1-1.3-0.2-1.8
		c-0.1-0.6-0.4-1.1-0.7-1.5s-0.7-0.8-1.2-1c-0.5-0.3-1.1-0.4-1.8-0.4c-0.3,0-0.7,0-1,0.1c-0.3,0.1-0.6,0.2-0.9,0.3
		c-0.3,0.1-0.5,0.2-0.7,0.3c-0.2,0.1-0.4,0.2-0.5,0.3V185.9z"/>
	<path fill="#717877" d="M-850.8,176.1c0.4-0.1,1-0.3,1.7-0.4c0.7-0.1,1.6-0.2,2.7-0.2c1.5,0,2.5,0.4,3.2,1.3
		c0.1-0.1,0.2-0.2,0.4-0.3c0.2-0.1,0.5-0.3,0.8-0.4c0.3-0.2,0.7-0.3,1.2-0.4c0.4-0.1,0.9-0.2,1.5-0.2c0.9,0,1.6,0.1,2.1,0.4
		c0.5,0.3,1,0.6,1.3,1.1c0.3,0.5,0.5,1,0.6,1.7c0.1,0.7,0.2,1.4,0.2,2.2v6.5h-1.5v-6c0-0.8,0-1.4-0.1-2c-0.1-0.6-0.2-1-0.4-1.4
		c-0.2-0.4-0.5-0.6-0.9-0.8c-0.4-0.2-0.9-0.3-1.5-0.3c-0.4,0-0.9,0-1.2,0.1c-0.4,0.1-0.7,0.2-1,0.3c-0.3,0.1-0.5,0.2-0.7,0.4
		c-0.2,0.1-0.3,0.2-0.4,0.3c0.1,0.4,0.2,0.8,0.3,1.3c0.1,0.5,0.1,1,0.1,1.5v6.6h-1.5v-6c0-0.8,0-1.4-0.1-2c-0.1-0.6-0.2-1-0.4-1.4
		c-0.2-0.4-0.5-0.6-0.9-0.8c-0.4-0.2-0.9-0.3-1.5-0.3c-0.7,0-1.3,0-1.8,0.1c-0.5,0.1-0.8,0.1-0.9,0.2v10.2h-1.5V176.1z"/>
	<path fill="#717877" d="M-829.6,172.1c0,0.3-0.1,0.6-0.3,0.8c-0.2,0.2-0.5,0.3-0.8,0.3c-0.3,0-0.6-0.1-0.8-0.3
		c-0.2-0.2-0.3-0.5-0.3-0.8c0-0.3,0.1-0.6,0.3-0.8c0.2-0.2,0.5-0.3,0.8-0.3c0.3,0,0.6,0.1,0.8,0.3
		C-829.7,171.5-829.6,171.8-829.6,172.1z M-829.9,187.3h-1.5v-11.6h1.5V187.3z"/>
	<path fill="#717877" d="M-824.7,175.6h4.6v1.2h-4.6v6.2c0,0.7,0.1,1.2,0.2,1.6c0.1,0.4,0.3,0.7,0.5,1c0.2,0.2,0.5,0.4,0.8,0.4
		c0.3,0.1,0.6,0.1,1,0.1c0.6,0,1.1-0.1,1.5-0.2c0.4-0.1,0.7-0.3,0.9-0.4l0.4,1.2c-0.2,0.1-0.6,0.3-1.1,0.5c-0.5,0.2-1.1,0.3-1.7,0.3
		c-0.7,0-1.3-0.1-1.8-0.3c-0.5-0.2-0.9-0.5-1.2-0.9c-0.3-0.4-0.5-0.9-0.6-1.4c-0.1-0.6-0.2-1.2-0.2-2v-10.7l1.5-0.3V175.6z"/>
</g>
<g>
	<g>
		<rect x="-1033.6" y="254" fill="#FFFFFF" width="286" height="49"/>
	</g>
	<g>
		<g>
			<polygon fill="#76C568" points="-746.7,256.2 -748.5,256.2 -748.5,254.9 -749.8,254.9 -749.8,253.1 -746.7,253.1 			"/>
		</g>
		<g>
			<path fill="#76C568" d="M-754.3,254.9h-4.5v-1.8h4.5V254.9z M-763.2,254.9h-4.5v-1.8h4.5V254.9z M-772.2,254.9h-4.5v-1.8h4.5
				V254.9z M-781.1,254.9h-4.5v-1.8h4.5V254.9z M-790.1,254.9h-4.5v-1.8h4.5V254.9z M-799,254.9h-4.5v-1.8h4.5V254.9z M-807.9,254.9
				h-4.5v-1.8h4.5V254.9z M-816.9,254.9h-4.5v-1.8h4.5V254.9z M-825.8,254.9h-4.5v-1.8h4.5V254.9z M-834.7,254.9h-4.5v-1.8h4.5
				V254.9z M-843.7,254.9h-4.5v-1.8h4.5V254.9z M-852.6,254.9h-4.5v-1.8h4.5V254.9z M-861.6,254.9h-4.5v-1.8h4.5V254.9z
				 M-870.5,254.9h-4.5v-1.8h4.5V254.9z M-879.4,254.9h-4.5v-1.8h4.5V254.9z M-888.4,254.9h-4.5v-1.8h4.5V254.9z M-897.3,254.9h-4.5
				v-1.8h4.5V254.9z M-906.2,254.9h-4.5v-1.8h4.5V254.9z M-915.2,254.9h-4.5v-1.8h4.5V254.9z M-924.1,254.9h-4.5v-1.8h4.5V254.9z
				 M-933.1,254.9h-4.5v-1.8h4.5V254.9z M-942,254.9h-4.5v-1.8h4.5V254.9z M-950.9,254.9h-4.5v-1.8h4.5V254.9z M-959.9,254.9h-4.5
				v-1.8h4.5V254.9z M-968.8,254.9h-4.5v-1.8h4.5V254.9z M-977.7,254.9h-4.5v-1.8h4.5V254.9z M-986.7,254.9h-4.5v-1.8h4.5V254.9z
				 M-995.6,254.9h-4.5v-1.8h4.5V254.9z M-1004.6,254.9h-4.5v-1.8h4.5V254.9z M-1013.5,254.9h-4.5v-1.8h4.5V254.9z M-1022.4,254.9
				h-4.5v-1.8h4.5V254.9z"/>
		</g>
		<g>
			<polygon fill="#76C568" points="-1032.7,256.2 -1034.5,256.2 -1034.5,253.1 -1031.4,253.1 -1031.4,254.9 -1032.7,254.9 			"/>
		</g>
		<g>
			<path fill="#76C568" d="M-1032.7,295.8h-1.8v-5h1.8V295.8z M-1032.7,285.9h-1.8v-5h1.8V285.9z M-1032.7,276h-1.8v-5h1.8V276z
				 M-1032.7,266.1h-1.8v-5h1.8V266.1z"/>
		</g>
		<g>
			<polygon fill="#76C568" points="-1031.4,303.9 -1034.5,303.9 -1034.5,300.8 -1032.7,300.8 -1032.7,302.1 -1031.4,302.1 			"/>
		</g>
		<g>
			<path fill="#76C568" d="M-754.3,303.9h-4.5v-1.8h4.5V303.9z M-763.2,303.9h-4.5v-1.8h4.5V303.9z M-772.2,303.9h-4.5v-1.8h4.5
				V303.9z M-781.1,303.9h-4.5v-1.8h4.5V303.9z M-790.1,303.9h-4.5v-1.8h4.5V303.9z M-799,303.9h-4.5v-1.8h4.5V303.9z M-807.9,303.9
				h-4.5v-1.8h4.5V303.9z M-816.9,303.9h-4.5v-1.8h4.5V303.9z M-825.8,303.9h-4.5v-1.8h4.5V303.9z M-834.7,303.9h-4.5v-1.8h4.5
				V303.9z M-843.7,303.9h-4.5v-1.8h4.5V303.9z M-852.6,303.9h-4.5v-1.8h4.5V303.9z M-861.6,303.9h-4.5v-1.8h4.5V303.9z
				 M-870.5,303.9h-4.5v-1.8h4.5V303.9z M-879.4,303.9h-4.5v-1.8h4.5V303.9z M-888.4,303.9h-4.5v-1.8h4.5V303.9z M-897.3,303.9h-4.5
				v-1.8h4.5V303.9z M-906.2,303.9h-4.5v-1.8h4.5V303.9z M-915.2,303.9h-4.5v-1.8h4.5V303.9z M-924.1,303.9h-4.5v-1.8h4.5V303.9z
				 M-933.1,303.9h-4.5v-1.8h4.5V303.9z M-942,303.9h-4.5v-1.8h4.5V303.9z M-950.9,303.9h-4.5v-1.8h4.5V303.9z M-959.9,303.9h-4.5
				v-1.8h4.5V303.9z M-968.8,303.9h-4.5v-1.8h4.5V303.9z M-977.7,303.9h-4.5v-1.8h4.5V303.9z M-986.7,303.9h-4.5v-1.8h4.5V303.9z
				 M-995.6,303.9h-4.5v-1.8h4.5V303.9z M-1004.6,303.9h-4.5v-1.8h4.5V303.9z M-1013.5,303.9h-4.5v-1.8h4.5V303.9z M-1022.4,303.9
				h-4.5v-1.8h4.5V303.9z"/>
		</g>
		<g>
			<polygon fill="#76C568" points="-746.7,303.9 -749.8,303.9 -749.8,302.1 -748.5,302.1 -748.5,300.8 -746.7,300.8 			"/>
		</g>
		<g>
			<path fill="#76C568" d="M-746.7,295.8h-1.8v-5h1.8V295.8z M-746.7,285.9h-1.8v-5h1.8V285.9z M-746.7,276h-1.8v-5h1.8V276z
				 M-746.7,266.1h-1.8v-5h1.8V266.1z"/>
		</g>
	</g>
</g>
<g>
	<path fill="#717877" d="M-928.3,280.7c0,0.9-0.1,1.7-0.4,2.5c-0.3,0.7-0.6,1.4-1.1,1.9c-0.5,0.5-1,0.9-1.7,1.2
		c-0.6,0.3-1.4,0.4-2.1,0.4c-0.8,0-1.5-0.1-2.1-0.4c-0.6-0.3-1.2-0.7-1.7-1.2c-0.5-0.5-0.8-1.2-1.1-1.9c-0.3-0.7-0.4-1.6-0.4-2.5
		c0-0.9,0.1-1.7,0.4-2.5c0.3-0.7,0.6-1.4,1.1-1.9c0.5-0.5,1-0.9,1.7-1.2c0.6-0.3,1.4-0.4,2.1-0.4c0.8,0,1.5,0.1,2.1,0.4
		c0.6,0.3,1.2,0.7,1.7,1.2c0.5,0.5,0.8,1.2,1.1,1.9C-928.5,278.9-928.3,279.7-928.3,280.7z M-929.9,280.7c0-1.5-0.3-2.6-1-3.5
		c-0.7-0.9-1.6-1.3-2.7-1.3c-1.2,0-2.1,0.4-2.7,1.3c-0.7,0.9-1,2-1,3.5c0,1.5,0.3,2.6,1,3.5c0.7,0.9,1.6,1.3,2.7,1.3
		c1.2,0,2.1-0.4,2.7-1.3C-930.2,283.3-929.9,282.1-929.9,280.7z"/>
	<path fill="#717877" d="M-925.2,275.2c0.4-0.1,1-0.3,1.8-0.4c0.7-0.1,1.6-0.2,2.7-0.2c0.9,0,1.6,0.1,2.2,0.4
		c0.6,0.3,1.1,0.6,1.4,1.1c0.4,0.5,0.6,1,0.8,1.7c0.1,0.7,0.2,1.4,0.2,2.2v6.5h-1.5v-6c0-0.8-0.1-1.5-0.2-2.1
		c-0.1-0.6-0.3-1-0.6-1.4c-0.3-0.4-0.6-0.6-1-0.8c-0.4-0.2-1-0.2-1.6-0.2c-0.7,0-1.3,0-1.8,0.1c-0.5,0.1-0.8,0.1-1,0.2v10.2h-1.5
		V275.2z"/>
	<path fill="#717877" d="M-908.9,285.5c1.2,0,2.2-0.2,2.8-0.7c0.7-0.4,1-1.2,1-2.1c0-0.6-0.1-1-0.3-1.4s-0.5-0.7-0.9-1
		c-0.4-0.3-0.8-0.5-1.2-0.7c-0.5-0.2-1-0.4-1.5-0.6c-0.6-0.3-1.2-0.5-1.7-0.8c-0.5-0.3-0.9-0.6-1.3-0.9c-0.4-0.3-0.6-0.7-0.8-1.2
		c-0.2-0.4-0.3-0.9-0.3-1.5c0-1.3,0.4-2.3,1.3-3c0.9-0.7,2.1-1,3.7-1c0.4,0,0.8,0,1.2,0.1c0.4,0.1,0.8,0.1,1.1,0.2
		c0.4,0.1,0.7,0.2,1,0.3c0.3,0.1,0.5,0.2,0.7,0.4l-0.5,1.3c-0.4-0.3-1-0.5-1.6-0.7c-0.6-0.2-1.3-0.3-2-0.3c-0.5,0-0.9,0-1.4,0.1
		c-0.4,0.1-0.8,0.3-1.1,0.5s-0.5,0.5-0.7,0.8c-0.2,0.3-0.3,0.7-0.3,1.2c0,0.5,0.1,0.9,0.3,1.2c0.2,0.3,0.4,0.6,0.8,0.9
		c0.3,0.2,0.7,0.5,1.1,0.7c0.4,0.2,0.9,0.4,1.4,0.6c0.6,0.3,1.2,0.5,1.7,0.8c0.5,0.3,1,0.6,1.4,0.9c0.4,0.3,0.7,0.8,1,1.3
		c0.2,0.5,0.4,1.1,0.4,1.8c0,1.4-0.5,2.5-1.5,3.2c-1,0.7-2.3,1.1-4,1.1c-0.6,0-1.1,0-1.6-0.1c-0.5-0.1-0.9-0.2-1.3-0.3
		c-0.4-0.1-0.7-0.2-1-0.3c-0.3-0.1-0.5-0.2-0.6-0.3l0.5-1.3c0.1,0.1,0.4,0.2,0.6,0.3s0.6,0.2,0.9,0.3c0.3,0.1,0.7,0.2,1.2,0.3
		C-909.9,285.4-909.5,285.5-908.9,285.5z"/>
	<path fill="#717877" d="M-891.9,286c-0.4,0.1-1,0.3-1.8,0.4c-0.7,0.1-1.6,0.2-2.7,0.2c-0.9,0-1.6-0.1-2.2-0.4
		c-0.6-0.3-1.1-0.6-1.4-1.1c-0.4-0.5-0.6-1-0.8-1.7c-0.2-0.7-0.2-1.4-0.2-2.2v-6.5h1.5v6c0,0.8,0.1,1.5,0.2,2.1
		c0.1,0.6,0.3,1,0.6,1.4c0.3,0.4,0.6,0.6,1,0.8c0.4,0.2,0.9,0.2,1.6,0.2c0.7,0,1.3,0,1.8-0.1c0.5-0.1,0.8-0.1,1-0.2v-10.2h1.5V286z"
		/>
	<path fill="#717877" d="M-886.5,275.5c0.3-0.2,0.7-0.4,1.2-0.6c0.6-0.2,1.2-0.3,2-0.3c0.8,0,1.6,0.1,2.2,0.4
		c0.7,0.3,1.2,0.7,1.7,1.3c0.4,0.5,0.8,1.2,1,1.9c0.2,0.7,0.3,1.6,0.3,2.4c0,0.9-0.1,1.8-0.4,2.5c-0.3,0.7-0.7,1.4-1.2,1.9
		c-0.5,0.5-1.1,0.9-1.8,1.2c-0.7,0.3-1.5,0.4-2.3,0.4c-1,0-1.9-0.1-2.6-0.2c-0.7-0.1-1.2-0.3-1.7-0.4v-16.8l1.5-0.3V275.5z
		 M-886.5,285.1c0.2,0.1,0.6,0.1,1,0.2c0.4,0.1,1,0.1,1.7,0.1c1.3,0,2.3-0.4,3-1.2c0.8-0.8,1.1-2,1.1-3.5c0-0.6-0.1-1.3-0.2-1.8
		c-0.1-0.6-0.4-1.1-0.7-1.5c-0.3-0.4-0.7-0.8-1.2-1c-0.5-0.3-1.1-0.4-1.8-0.4c-0.3,0-0.7,0-1,0.1c-0.3,0.1-0.6,0.2-0.9,0.3
		c-0.3,0.1-0.5,0.2-0.7,0.3c-0.2,0.1-0.4,0.2-0.5,0.3V285.1z"/>
	<path fill="#717877" d="M-874.9,275.2c0.4-0.1,1-0.3,1.7-0.4c0.7-0.1,1.6-0.2,2.7-0.2c1.5,0,2.5,0.4,3.2,1.3
		c0.1-0.1,0.2-0.2,0.4-0.3s0.5-0.3,0.8-0.4c0.3-0.2,0.7-0.3,1.2-0.4c0.4-0.1,0.9-0.2,1.5-0.2c0.9,0,1.6,0.1,2.1,0.4
		c0.5,0.3,1,0.6,1.3,1.1c0.3,0.5,0.5,1,0.6,1.7c0.1,0.7,0.2,1.4,0.2,2.2v6.5h-1.5v-6c0-0.8,0-1.4-0.1-2c-0.1-0.6-0.2-1-0.4-1.4
		c-0.2-0.4-0.5-0.6-0.9-0.8c-0.4-0.2-0.9-0.3-1.5-0.3c-0.4,0-0.9,0-1.2,0.1c-0.4,0.1-0.7,0.2-1,0.3c-0.3,0.1-0.5,0.2-0.7,0.4
		c-0.2,0.1-0.3,0.2-0.4,0.3c0.1,0.4,0.2,0.8,0.3,1.3c0.1,0.5,0.1,1,0.1,1.5v6.6h-1.5v-6c0-0.8,0-1.4-0.1-2c-0.1-0.6-0.2-1-0.4-1.4
		c-0.2-0.4-0.5-0.6-0.9-0.8c-0.4-0.2-0.9-0.3-1.5-0.3c-0.7,0-1.3,0-1.8,0.1s-0.8,0.1-0.9,0.2v10.2h-1.5V275.2z"/>
	<path fill="#717877" d="M-853.7,271.3c0,0.3-0.1,0.6-0.3,0.8c-0.2,0.2-0.5,0.3-0.8,0.3c-0.3,0-0.6-0.1-0.8-0.3
		c-0.2-0.2-0.3-0.5-0.3-0.8s0.1-0.6,0.3-0.8c0.2-0.2,0.5-0.3,0.8-0.3c0.3,0,0.6,0.1,0.8,0.3C-853.8,270.7-853.7,271-853.7,271.3z
		 M-854.1,286.5h-1.5v-11.6h1.5V286.5z"/>
	<path fill="#717877" d="M-848.8,274.8h4.6v1.2h-4.6v6.2c0,0.7,0.1,1.2,0.2,1.6c0.1,0.4,0.3,0.7,0.5,1c0.2,0.2,0.5,0.4,0.8,0.4
		c0.3,0.1,0.6,0.1,1,0.1c0.6,0,1.1-0.1,1.5-0.2c0.4-0.1,0.7-0.3,0.9-0.4l0.4,1.2c-0.2,0.1-0.6,0.3-1.1,0.5s-1.1,0.3-1.7,0.3
		c-0.7,0-1.3-0.1-1.8-0.3c-0.5-0.2-0.9-0.5-1.2-0.9c-0.3-0.4-0.5-0.9-0.6-1.4c-0.1-0.6-0.2-1.2-0.2-2v-10.7l1.5-0.3V274.8z"/>
</g>
<g>
	<path fill="#717877" d="M-1031.4,36.3V17.7h11.8v2.9h-8.4v4.8h7.5v2.9h-7.5v8.1H-1031.4z"/>
	<path fill="#717877" d="M-1004.3,29.3c0,1.1-0.2,2.1-0.5,3c-0.3,0.9-0.8,1.7-1.4,2.3c-0.6,0.6-1.3,1.2-2.1,1.5
		c-0.8,0.4-1.8,0.5-2.8,0.5c-1,0-1.9-0.2-2.7-0.5c-0.8-0.4-1.5-0.9-2.1-1.5c-0.6-0.6-1.1-1.4-1.4-2.3c-0.3-0.9-0.5-1.9-0.5-3
		c0-1.1,0.2-2.1,0.5-3c0.3-0.9,0.8-1.7,1.4-2.3c0.6-0.6,1.3-1.1,2.1-1.5c0.8-0.3,1.7-0.5,2.7-0.5c1,0,1.9,0.2,2.7,0.5
		c0.8,0.4,1.6,0.8,2.1,1.5c0.6,0.6,1.1,1.4,1.4,2.3C-1004.4,27.2-1004.3,28.2-1004.3,29.3z M-1007.6,29.3c0-1.4-0.3-2.5-0.9-3.3
		c-0.6-0.8-1.4-1.2-2.5-1.2c-1.1,0-1.9,0.4-2.5,1.2c-0.6,0.8-0.9,1.9-0.9,3.3c0,1.4,0.3,2.5,0.9,3.4c0.6,0.8,1.4,1.2,2.5,1.2
		c1.1,0,1.9-0.4,2.5-1.2C-1007.9,31.8-1007.6,30.7-1007.6,29.3z"/>
	<path fill="#717877" d="M-992.9,25.2c-0.3-0.1-0.6-0.2-1.1-0.3c-0.5-0.1-1-0.1-1.7-0.1c-0.4,0-0.7,0-1.1,0.1
		c-0.4,0.1-0.7,0.1-0.9,0.2v11.3h-3.3V22.9c0.6-0.2,1.4-0.5,2.4-0.7c0.9-0.2,2-0.3,3.1-0.3c0.2,0,0.5,0,0.8,0c0.3,0,0.6,0.1,0.9,0.1
		c0.3,0,0.6,0.1,0.8,0.2c0.3,0.1,0.5,0.1,0.6,0.2L-992.9,25.2z"/>
	<path fill="#717877" d="M-982,28.9c0-1.5-0.2-2.5-0.6-3.2c-0.4-0.7-1.1-1-2.1-1c-0.4,0-0.8,0-1.2,0.1c-0.4,0.1-0.8,0.1-1,0.1v11.4
		h-3.3V22.7c0.6-0.2,1.5-0.4,2.5-0.5c1-0.2,2.1-0.2,3.2-0.2c1,0,1.8,0.1,2.4,0.4c0.6,0.3,1.1,0.6,1.6,1c0.2-0.1,0.4-0.3,0.8-0.5
		c0.3-0.2,0.6-0.3,1-0.4c0.4-0.1,0.8-0.2,1.2-0.3c0.4-0.1,0.8-0.1,1.3-0.1c1.1,0,2,0.2,2.7,0.5c0.7,0.3,1.3,0.8,1.7,1.3
		c0.4,0.6,0.7,1.2,0.8,2c0.2,0.8,0.2,1.7,0.2,2.6v7.9h-3.3v-7.4c0-1.5-0.2-2.5-0.5-3.2c-0.4-0.7-1.1-1-2.1-1c-0.5,0-1,0.1-1.5,0.3
		s-0.8,0.3-1.1,0.5c0.1,0.4,0.2,0.9,0.3,1.4c0.1,0.5,0.1,1,0.1,1.6v7.8h-3.3V28.9z"/>
</g>
<g>
	<g>
		<rect x="-891.7" y="118.3" fill="#76C568" width="2.2" height="18.8"/>
	</g>
	<g>
		<g>
			<polygon fill="#76C568" points="-895.1,135.8 -890.6,143.5 -886.1,135.8 			"/>
		</g>
	</g>
</g>
<g>
	<g>
		<polygon fill="#76C568" points="-895.1,235.3 -890.6,243.1 -886.1,235.3 		"/>
	</g>
</g>
<g>
	<path fill="#76C568" d="M-676.2,22.9c-4.6,0-8.3-3.7-8.3-8.3s3.7-8.3,8.3-8.3c4.6,0,8.3,3.7,8.3,8.3S-671.6,22.9-676.2,22.9z
		 M-676.2,9.1c-3,0-5.5,2.5-5.5,5.5s2.5,5.5,5.5,5.5s5.5-2.5,5.5-5.5S-673.1,9.1-676.2,9.1z"/>
</g>
<g>
	<path fill="#76C568" d="M-653.9,8.9c1.5,0,2.6,0.3,3.4,0.8c0.8,0.5,1.2,1.4,1.2,2.5c0,1.4-0.7,2.3-2,2.8c0.2,0.2,0.4,0.5,0.6,0.8
		c0.2,0.3,0.5,0.7,0.7,1c0.2,0.4,0.5,0.8,0.7,1.2c0.2,0.4,0.4,0.8,0.6,1.2h-2.1c-0.2-0.4-0.4-0.7-0.6-1.1c-0.2-0.4-0.4-0.7-0.6-1
		c-0.2-0.3-0.4-0.7-0.6-0.9c-0.2-0.3-0.4-0.6-0.6-0.8c-0.1,0-0.3,0-0.4,0s-0.2,0-0.3,0h-0.9v3.8h-1.8v-10c0.4-0.1,0.9-0.2,1.4-0.2
		C-654.7,8.9-654.3,8.9-653.9,8.9z M-653.8,10.5c-0.4,0-0.7,0-1.1,0v3.3h0.8c0.4,0,0.8,0,1.2-0.1c0.3,0,0.6-0.1,0.9-0.3
		c0.2-0.1,0.4-0.3,0.5-0.5c0.1-0.2,0.2-0.5,0.2-0.8c0-0.3-0.1-0.6-0.2-0.8c-0.1-0.2-0.3-0.4-0.5-0.5c-0.2-0.1-0.5-0.2-0.8-0.3
		C-653.1,10.5-653.4,10.5-653.8,10.5z"/>
	<path fill="#76C568" d="M-647.8,15.3c0-0.7,0.1-1.3,0.3-1.8c0.2-0.5,0.5-0.9,0.8-1.3c0.3-0.3,0.7-0.6,1.1-0.8
		c0.4-0.2,0.9-0.3,1.3-0.3c1.1,0,1.9,0.3,2.5,1c0.6,0.7,0.9,1.6,0.9,2.9c0,0.1,0,0.2,0,0.3c0,0.1,0,0.2,0,0.3h-5
		c0,0.6,0.3,1.1,0.6,1.4c0.4,0.3,0.9,0.5,1.7,0.5c0.4,0,0.8,0,1.2-0.1s0.6-0.2,0.8-0.2l0.2,1.4c-0.1,0.1-0.2,0.1-0.4,0.2
		c-0.2,0.1-0.4,0.1-0.6,0.1c-0.2,0-0.5,0.1-0.7,0.1c-0.3,0-0.5,0-0.8,0c-0.7,0-1.3-0.1-1.8-0.3c-0.5-0.2-0.9-0.5-1.2-0.8
		c-0.3-0.4-0.6-0.8-0.7-1.3C-647.8,16.4-647.8,15.9-647.8,15.3z M-642.7,14.5c0-0.2,0-0.5-0.1-0.7c-0.1-0.2-0.2-0.4-0.3-0.6
		c-0.1-0.2-0.3-0.3-0.5-0.4c-0.2-0.1-0.4-0.1-0.7-0.1c-0.3,0-0.5,0-0.7,0.2c-0.2,0.1-0.4,0.2-0.5,0.4c-0.1,0.2-0.3,0.4-0.3,0.6
		c-0.1,0.2-0.1,0.4-0.2,0.7H-642.7z"/>
	<path fill="#76C568" d="M-632.2,15.3c0,0.6-0.1,1.1-0.2,1.6c-0.2,0.5-0.4,0.9-0.6,1.3c-0.3,0.4-0.6,0.6-1.1,0.8
		c-0.4,0.2-0.9,0.3-1.4,0.3c-0.4,0-0.7,0-1-0.1c-0.3-0.1-0.6-0.2-0.7-0.3v3h-1.8V11.7c0.4-0.1,0.8-0.2,1.3-0.3
		c0.5-0.1,1.1-0.1,1.7-0.1c0.6,0,1.1,0.1,1.6,0.3c0.5,0.2,0.9,0.5,1.2,0.8c0.3,0.3,0.6,0.8,0.8,1.3
		C-632.3,14.1-632.2,14.7-632.2,15.3z M-634,15.3c0-0.8-0.2-1.4-0.5-1.8c-0.4-0.4-0.9-0.7-1.7-0.7c-0.2,0-0.3,0-0.5,0
		c-0.2,0-0.4,0-0.5,0.1v4.4c0.2,0.1,0.4,0.2,0.6,0.3c0.3,0.1,0.5,0.1,0.8,0.1c0.6,0,1.1-0.2,1.4-0.7C-634.1,16.7-634,16.1-634,15.3z
		"/>
	<path fill="#76C568" d="M-627.7,19.3c-0.5,0-1-0.1-1.3-0.2c-0.3-0.1-0.6-0.3-0.8-0.5c-0.2-0.2-0.3-0.4-0.4-0.7
		c-0.1-0.3-0.1-0.6-0.1-1V8.1l1.8-0.3v8.8c0,0.2,0,0.4,0.1,0.5c0,0.1,0.1,0.3,0.2,0.4c0.1,0.1,0.2,0.2,0.4,0.2
		c0.2,0.1,0.3,0.1,0.6,0.1L-627.7,19.3z"/>
	<path fill="#76C568" d="M-623.5,11.3c0.6,0,1.1,0.1,1.5,0.2c0.4,0.1,0.7,0.4,1,0.6c0.2,0.3,0.4,0.6,0.5,1c0.1,0.4,0.2,0.8,0.2,1.2
		v4.6c-0.3,0.1-0.7,0.1-1.2,0.2c-0.6,0.1-1.2,0.1-1.9,0.1c-0.5,0-0.9,0-1.3-0.1c-0.4-0.1-0.7-0.2-1-0.4c-0.3-0.2-0.5-0.4-0.6-0.8
		c-0.2-0.3-0.2-0.7-0.2-1.2c0-0.4,0.1-0.8,0.3-1.1c0.2-0.3,0.4-0.6,0.7-0.7s0.6-0.3,1-0.4c0.4-0.1,0.8-0.1,1.2-0.1
		c0.2,0,0.4,0,0.6,0c0.2,0,0.4,0.1,0.7,0.1v-0.3c0-0.2,0-0.4-0.1-0.6c0-0.2-0.1-0.4-0.3-0.5c-0.1-0.1-0.3-0.3-0.5-0.3
		c-0.2-0.1-0.5-0.1-0.8-0.1c-0.4,0-0.8,0-1.1,0.1c-0.3,0.1-0.6,0.1-0.8,0.2l-0.2-1.4c0.2-0.1,0.5-0.2,1-0.2
		C-624.4,11.3-624,11.3-623.5,11.3z M-623.3,17.9c0.5,0,1,0,1.2-0.1v-2c-0.1,0-0.2-0.1-0.4-0.1s-0.4,0-0.6,0c-0.2,0-0.4,0-0.6,0
		c-0.2,0-0.4,0.1-0.5,0.2c-0.2,0.1-0.3,0.2-0.4,0.3c-0.1,0.1-0.1,0.3-0.1,0.5c0,0.4,0.1,0.7,0.4,0.9
		C-624.1,17.8-623.8,17.9-623.3,17.9z"/>
	<path fill="#76C568" d="M-618.6,15.3c0-0.6,0.1-1.1,0.3-1.6c0.2-0.5,0.4-0.9,0.8-1.3c0.3-0.4,0.7-0.6,1.2-0.8
		c0.5-0.2,1-0.3,1.6-0.3c0.7,0,1.4,0.1,2,0.4l-0.4,1.4c-0.2-0.1-0.4-0.2-0.7-0.2c-0.3-0.1-0.5-0.1-0.8-0.1c-0.7,0-1.2,0.2-1.6,0.6
		c-0.4,0.4-0.5,1-0.5,1.8c0,0.8,0.2,1.4,0.5,1.8c0.3,0.4,0.9,0.7,1.7,0.7c0.3,0,0.6,0,0.9-0.1s0.5-0.1,0.8-0.2l0.2,1.5
		c-0.2,0.1-0.5,0.2-0.9,0.3c-0.4,0.1-0.8,0.1-1.2,0.1c-0.7,0-1.2-0.1-1.7-0.3c-0.5-0.2-0.9-0.5-1.2-0.8c-0.3-0.4-0.6-0.8-0.7-1.3
		C-618.6,16.4-618.6,15.9-618.6,15.3z"/>
	<path fill="#76C568" d="M-611.7,15.3c0-0.7,0.1-1.3,0.3-1.8c0.2-0.5,0.5-0.9,0.8-1.3c0.3-0.3,0.7-0.6,1.1-0.8
		c0.4-0.2,0.9-0.3,1.3-0.3c1.1,0,1.9,0.3,2.5,1c0.6,0.7,0.9,1.6,0.9,2.9c0,0.1,0,0.2,0,0.3c0,0.1,0,0.2,0,0.3h-5
		c0,0.6,0.3,1.1,0.6,1.4c0.4,0.3,0.9,0.5,1.7,0.5c0.4,0,0.8,0,1.2-0.1s0.6-0.2,0.8-0.2l0.2,1.4c-0.1,0.1-0.2,0.1-0.4,0.2
		c-0.2,0.1-0.4,0.1-0.6,0.1c-0.2,0-0.5,0.1-0.7,0.1c-0.3,0-0.5,0-0.8,0c-0.7,0-1.3-0.1-1.8-0.3c-0.5-0.2-0.9-0.5-1.2-0.8
		c-0.3-0.4-0.6-0.8-0.7-1.3C-611.7,16.4-611.7,15.9-611.7,15.3z M-606.6,14.5c0-0.2,0-0.5-0.1-0.7c-0.1-0.2-0.2-0.4-0.3-0.6
		c-0.1-0.2-0.3-0.3-0.5-0.4c-0.2-0.1-0.4-0.1-0.7-0.1c-0.3,0-0.5,0-0.7,0.2s-0.4,0.2-0.5,0.4c-0.1,0.2-0.3,0.4-0.3,0.6
		c-0.1,0.2-0.1,0.4-0.2,0.7H-606.6z"/>
	<path fill="#76C568" d="M-600.4,11.3c0.6,0,1.1,0.1,1.5,0.2c0.4,0.1,0.7,0.4,1,0.6c0.2,0.3,0.4,0.6,0.5,1c0.1,0.4,0.2,0.8,0.2,1.2
		v4.6c-0.3,0.1-0.7,0.1-1.2,0.2c-0.5,0.1-1.2,0.1-1.9,0.1c-0.5,0-0.9,0-1.3-0.1c-0.4-0.1-0.7-0.2-1-0.4c-0.3-0.2-0.5-0.4-0.6-0.8
		c-0.2-0.3-0.2-0.7-0.2-1.2c0-0.4,0.1-0.8,0.3-1.1c0.2-0.3,0.4-0.6,0.7-0.7c0.3-0.2,0.6-0.3,1-0.4c0.4-0.1,0.8-0.1,1.2-0.1
		c0.2,0,0.4,0,0.6,0c0.2,0,0.4,0.1,0.7,0.1v-0.3c0-0.2,0-0.4-0.1-0.6c0-0.2-0.1-0.4-0.3-0.5c-0.1-0.1-0.3-0.3-0.5-0.3
		c-0.2-0.1-0.5-0.1-0.8-0.1c-0.4,0-0.8,0-1.1,0.1c-0.3,0.1-0.6,0.1-0.8,0.2l-0.2-1.4c0.2-0.1,0.6-0.2,1-0.2
		C-601.4,11.3-600.9,11.3-600.4,11.3z M-600.3,17.9c0.5,0,1,0,1.2-0.1v-2c-0.1,0-0.2-0.1-0.4-0.1s-0.4,0-0.6,0c-0.2,0-0.4,0-0.6,0
		s-0.4,0.1-0.5,0.2c-0.2,0.1-0.3,0.2-0.4,0.3c-0.1,0.1-0.1,0.3-0.1,0.5c0,0.4,0.1,0.7,0.4,0.9C-601.1,17.8-600.7,17.9-600.3,17.9z"
		/>
	<path fill="#76C568" d="M-588.3,15.3c0,0.6-0.1,1.2-0.3,1.7c-0.2,0.5-0.4,0.9-0.8,1.3c-0.3,0.4-0.7,0.6-1.2,0.8
		c-0.5,0.2-1,0.3-1.6,0.3c-0.6,0-1.1,0-1.7-0.1c-0.5-0.1-1-0.2-1.3-0.3V8.1l1.8-0.3v4c0.2-0.1,0.5-0.2,0.8-0.3s0.6-0.1,1-0.1
		c0.5,0,1,0.1,1.4,0.3c0.4,0.2,0.8,0.5,1.1,0.8c0.3,0.4,0.5,0.8,0.6,1.3C-588.4,14.2-588.3,14.7-588.3,15.3z M-590.1,15.3
		c0-0.8-0.1-1.3-0.4-1.8c-0.3-0.4-0.8-0.7-1.4-0.7c-0.3,0-0.6,0-0.8,0.1c-0.3,0.1-0.5,0.2-0.6,0.3v4.4c0.1,0,0.3,0.1,0.5,0.1
		s0.4,0,0.7,0c0.7,0,1.2-0.2,1.5-0.7C-590.3,16.7-590.1,16-590.1,15.3z"/>
	<path fill="#76C568" d="M-583.8,19.3c-0.5,0-1-0.1-1.3-0.2c-0.3-0.1-0.6-0.3-0.8-0.5c-0.2-0.2-0.3-0.4-0.4-0.7
		c-0.1-0.3-0.1-0.6-0.1-1V8.1l1.8-0.3v8.8c0,0.2,0,0.4,0.1,0.5c0,0.1,0.1,0.3,0.2,0.4c0.1,0.1,0.2,0.2,0.4,0.2s0.3,0.1,0.6,0.1
		L-583.8,19.3z"/>
	<path fill="#76C568" d="M-582.5,15.3c0-0.7,0.1-1.3,0.3-1.8c0.2-0.5,0.5-0.9,0.8-1.3c0.3-0.3,0.7-0.6,1.1-0.8
		c0.4-0.2,0.9-0.3,1.3-0.3c1.1,0,1.9,0.3,2.5,1c0.6,0.7,0.9,1.6,0.9,2.9c0,0.1,0,0.2,0,0.3c0,0.1,0,0.2,0,0.3h-5
		c0,0.6,0.3,1.1,0.6,1.4c0.4,0.3,0.9,0.5,1.7,0.5c0.4,0,0.8,0,1.2-0.1s0.6-0.2,0.8-0.2l0.2,1.4c-0.1,0.1-0.2,0.1-0.4,0.2
		c-0.2,0.1-0.4,0.1-0.6,0.1c-0.2,0-0.5,0.1-0.7,0.1s-0.5,0-0.8,0c-0.7,0-1.3-0.1-1.8-0.3c-0.5-0.2-0.9-0.5-1.2-0.8
		c-0.3-0.4-0.6-0.8-0.7-1.3C-582.5,16.4-582.5,15.9-582.5,15.3z M-577.4,14.5c0-0.2,0-0.5-0.1-0.7c-0.1-0.2-0.2-0.4-0.3-0.6
		c-0.1-0.2-0.3-0.3-0.5-0.4c-0.2-0.1-0.4-0.1-0.7-0.1c-0.3,0-0.5,0-0.7,0.2c-0.2,0.1-0.4,0.2-0.5,0.4c-0.1,0.2-0.3,0.4-0.3,0.6
		c-0.1,0.2-0.1,0.4-0.2,0.7H-577.4z"/>
</g>
<g>
	<path fill="#D1D1D1" d="M-676.2,54.4c-4.6,0-8.3-3.7-8.3-8.3s3.7-8.3,8.3-8.3c4.6,0,8.3,3.7,8.3,8.3S-671.6,54.4-676.2,54.4z
		 M-676.2,40.5c-3,0-5.5,2.5-5.5,5.5c0,3,2.5,5.5,5.5,5.5s5.5-2.5,5.5-5.5C-670.7,43-673.1,40.5-676.2,40.5z"/>
</g>
<g>
	<path fill="#D1D1D1" d="M-649.9,50.5c-0.3-0.6-0.7-1.2-1.1-1.8s-0.8-1.3-1.3-1.9c-0.4-0.6-0.9-1.3-1.3-1.9s-0.9-1.2-1.3-1.6v7.2
		h-1.8V40.4h1.5c0.4,0.4,0.8,0.9,1.3,1.5c0.4,0.6,0.9,1.1,1.4,1.7c0.5,0.6,0.9,1.2,1.3,1.8c0.4,0.6,0.8,1.2,1.1,1.7v-6.7h1.8v10.1
		H-649.9z"/>
	<path fill="#D1D1D1" d="M-639,46.7c0,0.6-0.1,1.2-0.3,1.7c-0.2,0.5-0.4,0.9-0.7,1.3c-0.3,0.4-0.7,0.6-1.2,0.8
		c-0.5,0.2-1,0.3-1.5,0.3c-0.5,0-1-0.1-1.5-0.3c-0.5-0.2-0.8-0.5-1.2-0.8c-0.3-0.4-0.6-0.8-0.8-1.3c-0.2-0.5-0.3-1-0.3-1.7
		s0.1-1.2,0.3-1.6c0.2-0.5,0.4-0.9,0.8-1.3s0.7-0.6,1.2-0.8s0.9-0.3,1.5-0.3c0.5,0,1,0.1,1.5,0.3c0.5,0.2,0.8,0.5,1.2,0.8
		c0.3,0.4,0.6,0.8,0.8,1.3C-639.1,45.5-639,46.1-639,46.7z M-640.9,46.7c0-0.8-0.2-1.4-0.5-1.8c-0.3-0.4-0.8-0.7-1.4-0.7
		c-0.6,0-1,0.2-1.4,0.7c-0.3,0.4-0.5,1-0.5,1.8c0,0.8,0.2,1.4,0.5,1.8c0.3,0.5,0.8,0.7,1.4,0.7c0.6,0,1-0.2,1.4-0.7
		C-641,48.1-640.9,47.5-640.9,46.7z"/>
	<path fill="#D1D1D1" d="M-637.3,40.9l1.8-0.3v2.3h2.7v1.5h-2.7v3.1c0,0.6,0.1,1.1,0.3,1.3c0.2,0.3,0.5,0.4,1,0.4
		c0.3,0,0.6,0,0.9-0.1c0.2-0.1,0.4-0.1,0.6-0.2l0.3,1.4c-0.2,0.1-0.5,0.2-0.8,0.3c-0.3,0.1-0.7,0.1-1.2,0.1c-0.5,0-1-0.1-1.4-0.2
		c-0.4-0.1-0.7-0.4-0.9-0.6c-0.2-0.3-0.4-0.6-0.5-1c-0.1-0.4-0.1-0.8-0.1-1.4V40.9z"/>
	<path fill="#D1D1D1" d="M-632.4,45.5h3.9v1.6h-3.9V45.5z"/>
	<path fill="#D1D1D1" d="M-622.7,44.5c-0.1,0-0.3-0.1-0.6-0.2c-0.3-0.1-0.6-0.1-0.9-0.1c-0.2,0-0.4,0-0.6,0.1s-0.4,0.1-0.5,0.1v6.1
		h-1.8v-7.3c0.3-0.1,0.8-0.2,1.3-0.4c0.5-0.1,1.1-0.2,1.7-0.2c0.1,0,0.3,0,0.4,0s0.3,0,0.5,0.1c0.2,0,0.3,0.1,0.5,0.1
		c0.1,0,0.3,0.1,0.4,0.1L-622.7,44.5z"/>
	<path fill="#D1D1D1" d="M-621.6,46.7c0-0.7,0.1-1.3,0.3-1.8c0.2-0.5,0.5-0.9,0.8-1.3c0.3-0.3,0.7-0.6,1.1-0.8
		c0.4-0.2,0.9-0.3,1.3-0.3c1.1,0,1.9,0.3,2.5,1c0.6,0.7,0.9,1.6,0.9,2.9c0,0.1,0,0.2,0,0.3c0,0.1,0,0.2,0,0.3h-5
		c0,0.6,0.3,1.1,0.6,1.4c0.4,0.3,0.9,0.5,1.7,0.5c0.4,0,0.8,0,1.2-0.1c0.4-0.1,0.6-0.2,0.8-0.2l0.2,1.4c-0.1,0.1-0.2,0.1-0.4,0.2
		c-0.2,0.1-0.4,0.1-0.6,0.1c-0.2,0-0.5,0.1-0.7,0.1c-0.3,0-0.5,0-0.8,0c-0.7,0-1.3-0.1-1.8-0.3c-0.5-0.2-0.9-0.5-1.2-0.8
		c-0.3-0.4-0.6-0.8-0.7-1.3S-621.6,47.3-621.6,46.7z M-616.4,46c0-0.2,0-0.5-0.1-0.7c-0.1-0.2-0.2-0.4-0.3-0.6
		c-0.1-0.2-0.3-0.3-0.5-0.4c-0.2-0.1-0.4-0.1-0.7-0.1c-0.3,0-0.5,0-0.7,0.2c-0.2,0.1-0.4,0.2-0.5,0.4c-0.1,0.2-0.3,0.4-0.3,0.6
		c-0.1,0.2-0.1,0.4-0.2,0.7H-616.4z"/>
	<path fill="#D1D1D1" d="M-605.9,46.7c0,0.6-0.1,1.1-0.2,1.6c-0.2,0.5-0.4,0.9-0.6,1.3c-0.3,0.4-0.6,0.6-1.1,0.8
		c-0.4,0.2-0.9,0.3-1.4,0.3c-0.4,0-0.7,0-1-0.1c-0.3-0.1-0.6-0.2-0.7-0.3v3h-1.8V43.1c0.4-0.1,0.8-0.2,1.3-0.3
		c0.5-0.1,1.1-0.1,1.7-0.1c0.6,0,1.1,0.1,1.6,0.3c0.5,0.2,0.9,0.5,1.2,0.8c0.3,0.3,0.6,0.8,0.8,1.3C-606,45.5-605.9,46.1-605.9,46.7
		z M-607.7,46.7c0-0.8-0.2-1.4-0.5-1.8c-0.4-0.4-0.9-0.7-1.7-0.7c-0.2,0-0.3,0-0.5,0c-0.2,0-0.4,0-0.5,0.1v4.4
		c0.2,0.1,0.4,0.2,0.6,0.3c0.3,0.1,0.5,0.1,0.8,0.1c0.6,0,1.1-0.2,1.4-0.7C-607.9,48.1-607.7,47.5-607.7,46.7z"/>
	<path fill="#D1D1D1" d="M-601.4,50.7c-0.5,0-1-0.1-1.3-0.2c-0.3-0.1-0.6-0.3-0.8-0.5c-0.2-0.2-0.3-0.4-0.4-0.7
		c-0.1-0.3-0.1-0.6-0.1-1v-8.8l1.8-0.3v8.8c0,0.2,0,0.4,0.1,0.5c0,0.1,0.1,0.3,0.2,0.4c0.1,0.1,0.2,0.2,0.4,0.2
		c0.2,0.1,0.3,0.1,0.6,0.1L-601.4,50.7z"/>
	<path fill="#D1D1D1" d="M-597.2,42.7c0.6,0,1.1,0.1,1.5,0.2c0.4,0.1,0.7,0.4,1,0.6c0.2,0.3,0.4,0.6,0.5,1c0.1,0.4,0.2,0.8,0.2,1.2
		v4.6c-0.3,0.1-0.7,0.1-1.2,0.2c-0.5,0.1-1.2,0.1-1.9,0.1c-0.5,0-0.9,0-1.3-0.1c-0.4-0.1-0.7-0.2-1-0.4c-0.3-0.2-0.5-0.4-0.6-0.8
		c-0.2-0.3-0.2-0.7-0.2-1.2c0-0.4,0.1-0.8,0.3-1.1c0.2-0.3,0.4-0.6,0.7-0.7c0.3-0.2,0.6-0.3,1-0.4c0.4-0.1,0.8-0.1,1.2-0.1
		c0.2,0,0.4,0,0.6,0c0.2,0,0.4,0.1,0.7,0.1v-0.3c0-0.2,0-0.4-0.1-0.6c0-0.2-0.1-0.4-0.3-0.5c-0.1-0.1-0.3-0.3-0.5-0.3
		c-0.2-0.1-0.5-0.1-0.8-0.1c-0.4,0-0.8,0-1.1,0.1c-0.3,0.1-0.6,0.1-0.8,0.2l-0.2-1.4c0.2-0.1,0.5-0.2,1-0.2
		C-598.1,42.7-597.7,42.7-597.2,42.7z M-597,49.3c0.5,0,1,0,1.2-0.1v-2c-0.1,0-0.2-0.1-0.4-0.1c-0.2,0-0.4,0-0.6,0
		c-0.2,0-0.4,0-0.6,0c-0.2,0-0.4,0.1-0.5,0.2c-0.2,0.1-0.3,0.2-0.4,0.3c-0.1,0.1-0.1,0.3-0.1,0.5c0,0.4,0.1,0.7,0.4,0.9
		C-597.8,49.2-597.5,49.3-597,49.3z"/>
	<path fill="#D1D1D1" d="M-592.4,46.7c0-0.6,0.1-1.1,0.3-1.6c0.2-0.5,0.4-0.9,0.8-1.3s0.7-0.6,1.2-0.8c0.5-0.2,1-0.3,1.6-0.3
		c0.7,0,1.4,0.1,2,0.4l-0.4,1.4c-0.2-0.1-0.4-0.2-0.7-0.2c-0.3-0.1-0.5-0.1-0.8-0.1c-0.7,0-1.2,0.2-1.6,0.6c-0.4,0.4-0.5,1-0.5,1.8
		c0,0.8,0.2,1.4,0.5,1.8c0.3,0.4,0.9,0.7,1.7,0.7c0.3,0,0.6,0,0.9-0.1s0.5-0.1,0.8-0.2l0.2,1.5c-0.2,0.1-0.5,0.2-0.9,0.3
		c-0.4,0.1-0.8,0.1-1.2,0.1c-0.7,0-1.2-0.1-1.7-0.3s-0.9-0.5-1.2-0.8c-0.3-0.4-0.6-0.8-0.7-1.3C-592.3,47.8-592.4,47.3-592.4,46.7z"
		/>
	<path fill="#D1D1D1" d="M-585.5,46.7c0-0.7,0.1-1.3,0.3-1.8c0.2-0.5,0.5-0.9,0.8-1.3c0.3-0.3,0.7-0.6,1.1-0.8
		c0.4-0.2,0.9-0.3,1.3-0.3c1.1,0,1.9,0.3,2.5,1c0.6,0.7,0.9,1.6,0.9,2.9c0,0.1,0,0.2,0,0.3c0,0.1,0,0.2,0,0.3h-5
		c0,0.6,0.3,1.1,0.6,1.4c0.4,0.3,0.9,0.5,1.7,0.5c0.4,0,0.8,0,1.2-0.1c0.4-0.1,0.6-0.2,0.8-0.2l0.2,1.4c-0.1,0.1-0.2,0.1-0.4,0.2
		c-0.2,0.1-0.4,0.1-0.6,0.1c-0.2,0-0.5,0.1-0.7,0.1c-0.3,0-0.5,0-0.8,0c-0.7,0-1.3-0.1-1.8-0.3c-0.5-0.2-0.9-0.5-1.2-0.8
		c-0.3-0.4-0.6-0.8-0.7-1.3S-585.5,47.3-585.5,46.7z M-580.3,46c0-0.2,0-0.5-0.1-0.7c-0.1-0.2-0.2-0.4-0.3-0.6
		c-0.1-0.2-0.3-0.3-0.5-0.4c-0.2-0.1-0.4-0.1-0.7-0.1c-0.3,0-0.5,0-0.7,0.2c-0.2,0.1-0.4,0.2-0.5,0.4c-0.1,0.2-0.3,0.4-0.3,0.6
		c-0.1,0.2-0.1,0.4-0.2,0.7H-580.3z"/>
	<path fill="#D1D1D1" d="M-574.1,42.7c0.6,0,1.1,0.1,1.5,0.2c0.4,0.1,0.7,0.4,1,0.6c0.2,0.3,0.4,0.6,0.5,1c0.1,0.4,0.2,0.8,0.2,1.2
		v4.6c-0.3,0.1-0.7,0.1-1.2,0.2c-0.5,0.1-1.2,0.1-1.9,0.1c-0.5,0-0.9,0-1.3-0.1c-0.4-0.1-0.7-0.2-1-0.4c-0.3-0.2-0.5-0.4-0.6-0.8
		s-0.2-0.7-0.2-1.2c0-0.4,0.1-0.8,0.3-1.1c0.2-0.3,0.4-0.6,0.7-0.7c0.3-0.2,0.6-0.3,1-0.4c0.4-0.1,0.8-0.1,1.2-0.1
		c0.2,0,0.4,0,0.6,0c0.2,0,0.4,0.1,0.7,0.1v-0.3c0-0.2,0-0.4-0.1-0.6c0-0.2-0.1-0.4-0.3-0.5c-0.1-0.1-0.3-0.3-0.5-0.3
		c-0.2-0.1-0.5-0.1-0.8-0.1c-0.4,0-0.8,0-1.1,0.1c-0.3,0.1-0.6,0.1-0.8,0.2l-0.2-1.4c0.2-0.1,0.6-0.2,1-0.2
		C-575.1,42.7-574.6,42.7-574.1,42.7z M-574,49.3c0.5,0,1,0,1.2-0.1v-2c-0.1,0-0.2-0.1-0.4-0.1c-0.2,0-0.4,0-0.6,0
		c-0.2,0-0.4,0-0.6,0c-0.2,0-0.4,0.1-0.5,0.2c-0.2,0.1-0.3,0.2-0.4,0.3c-0.1,0.1-0.1,0.3-0.1,0.5c0,0.4,0.1,0.7,0.4,0.9
		C-574.8,49.2-574.5,49.3-574,49.3z"/>
	<path fill="#D1D1D1" d="M-562,46.7c0,0.6-0.1,1.2-0.3,1.7c-0.2,0.5-0.4,0.9-0.8,1.3c-0.3,0.4-0.7,0.6-1.2,0.8
		c-0.5,0.2-1,0.3-1.6,0.3c-0.6,0-1.1,0-1.7-0.1c-0.5-0.1-1-0.2-1.3-0.3V39.5l1.8-0.3v4c0.2-0.1,0.5-0.2,0.8-0.3s0.6-0.1,1-0.1
		c0.5,0,1,0.1,1.4,0.3c0.4,0.2,0.8,0.5,1.1,0.8c0.3,0.4,0.5,0.8,0.6,1.3C-562.1,45.6-562,46.1-562,46.7z M-563.8,46.7
		c0-0.8-0.1-1.3-0.4-1.8c-0.3-0.4-0.8-0.7-1.4-0.7c-0.3,0-0.6,0-0.8,0.1c-0.3,0.1-0.5,0.2-0.6,0.3v4.4c0.1,0,0.3,0.1,0.5,0.1
		c0.2,0,0.4,0,0.7,0c0.7,0,1.2-0.2,1.5-0.7C-564,48.1-563.8,47.5-563.8,46.7z"/>
	<path fill="#D1D1D1" d="M-557.5,50.7c-0.5,0-1-0.1-1.3-0.2c-0.3-0.1-0.6-0.3-0.8-0.5c-0.2-0.2-0.3-0.4-0.4-0.7
		c-0.1-0.3-0.1-0.6-0.1-1v-8.8l1.8-0.3v8.8c0,0.2,0,0.4,0.1,0.5c0,0.1,0.1,0.3,0.2,0.4c0.1,0.1,0.2,0.2,0.4,0.2
		c0.2,0.1,0.3,0.1,0.6,0.1L-557.5,50.7z"/>
	<path fill="#D1D1D1" d="M-556.3,46.7c0-0.7,0.1-1.3,0.3-1.8c0.2-0.5,0.5-0.9,0.8-1.3c0.3-0.3,0.7-0.6,1.1-0.8
		c0.4-0.2,0.9-0.3,1.3-0.3c1.1,0,1.9,0.3,2.5,1c0.6,0.7,0.9,1.6,0.9,2.9c0,0.1,0,0.2,0,0.3c0,0.1,0,0.2,0,0.3h-5
		c0,0.6,0.3,1.1,0.6,1.4c0.4,0.3,0.9,0.5,1.7,0.5c0.4,0,0.8,0,1.2-0.1c0.4-0.1,0.6-0.2,0.8-0.2l0.2,1.4c-0.1,0.1-0.2,0.1-0.4,0.2
		c-0.2,0.1-0.4,0.1-0.6,0.1c-0.2,0-0.5,0.1-0.7,0.1c-0.3,0-0.5,0-0.8,0c-0.7,0-1.3-0.1-1.8-0.3c-0.5-0.2-0.9-0.5-1.2-0.8
		c-0.3-0.4-0.6-0.8-0.7-1.3S-556.3,47.3-556.3,46.7z M-551.1,46c0-0.2,0-0.5-0.1-0.7c-0.1-0.2-0.2-0.4-0.3-0.6
		c-0.1-0.2-0.3-0.3-0.5-0.4c-0.2-0.1-0.4-0.1-0.7-0.1c-0.3,0-0.5,0-0.7,0.2c-0.2,0.1-0.4,0.2-0.5,0.4c-0.1,0.2-0.3,0.4-0.3,0.6
		c-0.1,0.2-0.1,0.4-0.2,0.7H-551.1z"/>
</g>
<g>
	<path fill="#76C568" d="M-767.4,163c0,0.4,0,0.7-0.1,1c-0.1,0.3-0.2,0.6-0.4,0.8c-0.2,0.2-0.4,0.4-0.7,0.5
		c-0.3,0.1-0.6,0.2-0.9,0.2c-0.2,0-0.4,0-0.6-0.1c-0.2-0.1-0.3-0.1-0.5-0.2v1.8h-1.1v-6.2c0.2-0.1,0.5-0.1,0.8-0.2
		c0.3-0.1,0.7-0.1,1-0.1c0.4,0,0.7,0.1,1,0.2c0.3,0.1,0.5,0.3,0.7,0.5c0.2,0.2,0.4,0.5,0.5,0.8C-767.4,162.3-767.4,162.7-767.4,163z
		 M-768.5,163.1c0-0.5-0.1-0.9-0.3-1.1c-0.2-0.3-0.6-0.4-1.1-0.4c-0.1,0-0.2,0-0.3,0s-0.2,0-0.3,0.1v2.7c0.1,0.1,0.2,0.1,0.4,0.2
		c0.2,0.1,0.3,0.1,0.5,0.1c0.4,0,0.7-0.1,0.9-0.4C-768.6,163.9-768.5,163.5-768.5,163.1z"/>
	<path fill="#76C568" d="M-763.6,161.7c-0.1,0-0.2-0.1-0.4-0.1c-0.2,0-0.3,0-0.6,0c-0.1,0-0.2,0-0.4,0c-0.1,0-0.2,0-0.3,0.1v3.8
		h-1.1v-4.5c0.2-0.1,0.5-0.2,0.8-0.2s0.7-0.1,1-0.1c0.1,0,0.2,0,0.3,0c0.1,0,0.2,0,0.3,0s0.2,0,0.3,0.1c0.1,0,0.2,0,0.2,0.1
		L-763.6,161.7z"/>
	<path fill="#76C568" d="M-758.4,163c0,0.4-0.1,0.7-0.2,1c-0.1,0.3-0.3,0.6-0.5,0.8c-0.2,0.2-0.4,0.4-0.7,0.5
		c-0.3,0.1-0.6,0.2-0.9,0.2c-0.3,0-0.6-0.1-0.9-0.2c-0.3-0.1-0.5-0.3-0.7-0.5c-0.2-0.2-0.4-0.5-0.5-0.8c-0.1-0.3-0.2-0.6-0.2-1
		c0-0.4,0.1-0.7,0.2-1c0.1-0.3,0.3-0.6,0.5-0.8c0.2-0.2,0.4-0.4,0.7-0.5s0.6-0.2,0.9-0.2c0.3,0,0.6,0.1,0.9,0.2
		c0.3,0.1,0.5,0.3,0.7,0.5c0.2,0.2,0.4,0.5,0.5,0.8C-758.5,162.3-758.4,162.7-758.4,163z M-759.5,163c0-0.5-0.1-0.8-0.3-1.1
		c-0.2-0.3-0.5-0.4-0.8-0.4c-0.4,0-0.6,0.1-0.8,0.4c-0.2,0.3-0.3,0.6-0.3,1.1c0,0.5,0.1,0.8,0.3,1.1c0.2,0.3,0.5,0.4,0.8,0.4
		c0.4,0,0.6-0.1,0.8-0.4C-759.6,163.9-759.5,163.5-759.5,163z"/>
	<path fill="#76C568" d="M-753.1,163c0,0.4,0,0.7-0.1,1c-0.1,0.3-0.2,0.6-0.4,0.8s-0.4,0.4-0.7,0.5c-0.3,0.1-0.6,0.2-0.9,0.2
		c-0.2,0-0.4,0-0.6-0.1c-0.2-0.1-0.3-0.1-0.5-0.2v1.8h-1.1v-6.2c0.2-0.1,0.5-0.1,0.8-0.2c0.3-0.1,0.7-0.1,1-0.1c0.4,0,0.7,0.1,1,0.2
		c0.3,0.1,0.5,0.3,0.7,0.5c0.2,0.2,0.4,0.5,0.5,0.8C-753.1,162.3-753.1,162.7-753.1,163z M-754.2,163.1c0-0.5-0.1-0.9-0.3-1.1
		s-0.6-0.4-1.1-0.4c-0.1,0-0.2,0-0.3,0c-0.1,0-0.2,0-0.3,0.1v2.7c0.1,0.1,0.2,0.1,0.4,0.2c0.2,0.1,0.3,0.1,0.5,0.1
		c0.4,0,0.7-0.1,0.9-0.4C-754.3,163.9-754.2,163.5-754.2,163.1z"/>
</g>
<g>
	<path fill="#D1D1D1" d="M-782.4,65.8c0-0.5-0.1-0.8-0.2-1.1c-0.1-0.2-0.4-0.3-0.7-0.3c-0.1,0-0.3,0-0.4,0c-0.1,0-0.3,0-0.3,0v3.8
		h-1.1v-4.5c0.2-0.1,0.5-0.1,0.8-0.2c0.3-0.1,0.7-0.1,1.1-0.1c0.3,0,0.6,0,0.8,0.1c0.2,0.1,0.4,0.2,0.5,0.3c0.1,0,0.1-0.1,0.3-0.2
		c0.1-0.1,0.2-0.1,0.3-0.1c0.1,0,0.3-0.1,0.4-0.1c0.1,0,0.3,0,0.4,0c0.4,0,0.7,0.1,0.9,0.2s0.4,0.3,0.6,0.4c0.1,0.2,0.2,0.4,0.3,0.7
		c0.1,0.3,0.1,0.6,0.1,0.9v2.6h-1.1v-2.5c0-0.5-0.1-0.8-0.2-1.1c-0.1-0.2-0.4-0.3-0.7-0.3c-0.2,0-0.3,0-0.5,0.1
		c-0.2,0.1-0.3,0.1-0.3,0.2c0,0.2,0.1,0.3,0.1,0.5c0,0.2,0,0.3,0,0.5v2.6h-1.1V65.8z"/>
	<path fill="#D1D1D1" d="M-777.6,65.9c0-0.4,0.1-0.8,0.2-1.1c0.1-0.3,0.3-0.6,0.5-0.8c0.2-0.2,0.4-0.4,0.7-0.5
		c0.3-0.1,0.5-0.2,0.8-0.2c0.6,0,1.1,0.2,1.5,0.6c0.4,0.4,0.5,1,0.5,1.8c0,0.1,0,0.1,0,0.2c0,0.1,0,0.1,0,0.2h-3.1
		c0,0.4,0.2,0.7,0.4,0.9c0.2,0.2,0.6,0.3,1,0.3c0.3,0,0.5,0,0.7-0.1c0.2,0,0.4-0.1,0.5-0.2l0.1,0.9c-0.1,0-0.1,0.1-0.2,0.1
		c-0.1,0-0.2,0.1-0.4,0.1c-0.1,0-0.3,0-0.4,0.1c-0.2,0-0.3,0-0.5,0c-0.4,0-0.8-0.1-1.1-0.2c-0.3-0.1-0.6-0.3-0.8-0.5
		c-0.2-0.2-0.3-0.5-0.4-0.8C-777.5,66.6-777.6,66.3-777.6,65.9z M-774.4,65.5c0-0.1,0-0.3-0.1-0.4c0-0.1-0.1-0.3-0.2-0.3
		c-0.1-0.1-0.2-0.2-0.3-0.2c-0.1-0.1-0.3-0.1-0.4-0.1c-0.2,0-0.3,0-0.4,0.1c-0.1,0.1-0.2,0.1-0.3,0.2c-0.1,0.1-0.2,0.2-0.2,0.3
		s-0.1,0.3-0.1,0.4H-774.4z"/>
	<path fill="#D1D1D1" d="M-772.3,62.3l1.1-0.2v1.4h1.7v0.9h-1.7v1.9c0,0.4,0.1,0.6,0.2,0.8c0.1,0.2,0.3,0.2,0.6,0.2
		c0.2,0,0.4,0,0.5-0.1c0.2,0,0.3-0.1,0.4-0.1l0.2,0.9c-0.1,0.1-0.3,0.1-0.5,0.2c-0.2,0.1-0.4,0.1-0.7,0.1c-0.3,0-0.6,0-0.8-0.1
		c-0.2-0.1-0.4-0.2-0.5-0.4c-0.1-0.2-0.2-0.4-0.3-0.6c-0.1-0.2-0.1-0.5-0.1-0.8V62.3z"/>
	<path fill="#D1D1D1" d="M-768.5,68.3v-6.8l1.1-0.2v2.3c0.1,0,0.3-0.1,0.4-0.1c0.2,0,0.3,0,0.5,0c0.4,0,0.7,0.1,0.9,0.2
		s0.4,0.3,0.6,0.4c0.1,0.2,0.3,0.4,0.3,0.7c0.1,0.3,0.1,0.6,0.1,0.9v2.6h-1.1v-2.5c0-0.3,0-0.5-0.1-0.6c0-0.2-0.1-0.3-0.2-0.4
		c-0.1-0.1-0.2-0.2-0.3-0.2c-0.1-0.1-0.3-0.1-0.5-0.1c-0.1,0-0.3,0-0.4,0c-0.1,0-0.3,0.1-0.3,0.1v3.7H-768.5z"/>
	<path fill="#D1D1D1" d="M-759,65.9c0,0.4-0.1,0.7-0.2,1c-0.1,0.3-0.3,0.6-0.5,0.8c-0.2,0.2-0.4,0.4-0.7,0.5
		c-0.3,0.1-0.6,0.2-0.9,0.2c-0.3,0-0.6-0.1-0.9-0.2c-0.3-0.1-0.5-0.3-0.7-0.5c-0.2-0.2-0.4-0.5-0.5-0.8c-0.1-0.3-0.2-0.6-0.2-1
		c0-0.4,0.1-0.7,0.2-1c0.1-0.3,0.3-0.6,0.5-0.8c0.2-0.2,0.4-0.4,0.7-0.5c0.3-0.1,0.6-0.2,0.9-0.2c0.3,0,0.6,0.1,0.9,0.2
		c0.3,0.1,0.5,0.3,0.7,0.5c0.2,0.2,0.4,0.5,0.5,0.8C-759.1,65.2-759,65.6-759,65.9z M-760.1,65.9c0-0.5-0.1-0.8-0.3-1.1
		c-0.2-0.3-0.5-0.4-0.8-0.4c-0.4,0-0.6,0.1-0.8,0.4c-0.2,0.3-0.3,0.6-0.3,1.1c0,0.5,0.1,0.8,0.3,1.1c0.2,0.3,0.5,0.4,0.8,0.4
		c0.4,0,0.6-0.1,0.8-0.4C-760.2,66.8-760.1,66.4-760.1,65.9z"/>
	<path fill="#D1D1D1" d="M-753.9,68.1c-0.2,0.1-0.5,0.1-0.8,0.2c-0.3,0.1-0.7,0.1-1,0.1c-0.4,0-0.7-0.1-1-0.2
		c-0.3-0.1-0.5-0.3-0.7-0.5c-0.2-0.2-0.4-0.5-0.5-0.8c-0.1-0.3-0.2-0.6-0.2-1c0-0.4,0-0.7,0.1-1c0.1-0.3,0.2-0.6,0.4-0.8
		c0.2-0.2,0.4-0.4,0.7-0.5c0.3-0.1,0.6-0.2,0.9-0.2c0.2,0,0.4,0,0.6,0.1c0.2,0.1,0.3,0.1,0.4,0.2v-2.2l1.1-0.2V68.1z M-757,65.9
		c0,0.5,0.1,0.9,0.3,1.1c0.2,0.3,0.5,0.4,0.9,0.4c0.2,0,0.3,0,0.4,0s0.2,0,0.3,0v-2.7c-0.1-0.1-0.2-0.1-0.4-0.2
		c-0.2-0.1-0.3-0.1-0.5-0.1c-0.4,0-0.7,0.1-0.9,0.4C-757,65.1-757,65.5-757,65.9z"/>
</g>
<g>
	<path fill="#76C568" d="M-767.4,265.2c0,0.4,0,0.7-0.1,1c-0.1,0.3-0.2,0.6-0.4,0.8c-0.2,0.2-0.4,0.4-0.7,0.5
		c-0.3,0.1-0.6,0.2-0.9,0.2c-0.2,0-0.4,0-0.6-0.1c-0.2-0.1-0.3-0.1-0.5-0.2v1.8h-1.1V263c0.2-0.1,0.5-0.1,0.8-0.2
		c0.3-0.1,0.7-0.1,1-0.1c0.4,0,0.7,0.1,1,0.2c0.3,0.1,0.5,0.3,0.7,0.5c0.2,0.2,0.4,0.5,0.5,0.8
		C-767.4,264.5-767.4,264.8-767.4,265.2z M-768.5,265.2c0-0.5-0.1-0.9-0.3-1.1c-0.2-0.3-0.6-0.4-1.1-0.4c-0.1,0-0.2,0-0.3,0
		c-0.1,0-0.2,0-0.3,0.1v2.7c0.1,0.1,0.2,0.1,0.4,0.2c0.2,0.1,0.3,0.1,0.5,0.1c0.4,0,0.7-0.1,0.9-0.4
		C-768.6,266.1-768.5,265.7-768.5,265.2z"/>
	<path fill="#76C568" d="M-763.6,263.9c-0.1,0-0.2-0.1-0.4-0.1c-0.2,0-0.3,0-0.6,0c-0.1,0-0.2,0-0.4,0c-0.1,0-0.2,0-0.3,0.1v3.8
		h-1.1v-4.5c0.2-0.1,0.5-0.2,0.8-0.2c0.3-0.1,0.7-0.1,1-0.1c0.1,0,0.2,0,0.3,0c0.1,0,0.2,0,0.3,0s0.2,0,0.3,0.1s0.2,0,0.2,0.1
		L-763.6,263.9z"/>
	<path fill="#76C568" d="M-758.4,265.2c0,0.4-0.1,0.7-0.2,1c-0.1,0.3-0.3,0.6-0.5,0.8c-0.2,0.2-0.4,0.4-0.7,0.5
		c-0.3,0.1-0.6,0.2-0.9,0.2c-0.3,0-0.6-0.1-0.9-0.2c-0.3-0.1-0.5-0.3-0.7-0.5c-0.2-0.2-0.4-0.5-0.5-0.8c-0.1-0.3-0.2-0.6-0.2-1
		c0-0.4,0.1-0.7,0.2-1c0.1-0.3,0.3-0.6,0.5-0.8c0.2-0.2,0.4-0.4,0.7-0.5c0.3-0.1,0.6-0.2,0.9-0.2c0.3,0,0.6,0.1,0.9,0.2
		c0.3,0.1,0.5,0.3,0.7,0.5c0.2,0.2,0.4,0.5,0.5,0.8C-758.5,264.5-758.4,264.8-758.4,265.2z M-759.5,265.2c0-0.5-0.1-0.8-0.3-1.1
		c-0.2-0.3-0.5-0.4-0.8-0.4c-0.4,0-0.6,0.1-0.8,0.4c-0.2,0.3-0.3,0.6-0.3,1.1c0,0.5,0.1,0.8,0.3,1.1c0.2,0.3,0.5,0.4,0.8,0.4
		c0.4,0,0.6-0.1,0.8-0.4C-759.6,266.1-759.5,265.7-759.5,265.2z"/>
	<path fill="#76C568" d="M-753.1,265.2c0,0.4,0,0.7-0.1,1c-0.1,0.3-0.2,0.6-0.4,0.8s-0.4,0.4-0.7,0.5c-0.3,0.1-0.6,0.2-0.9,0.2
		c-0.2,0-0.4,0-0.6-0.1c-0.2-0.1-0.3-0.1-0.5-0.2v1.8h-1.1V263c0.2-0.1,0.5-0.1,0.8-0.2c0.3-0.1,0.7-0.1,1-0.1c0.4,0,0.7,0.1,1,0.2
		c0.3,0.1,0.5,0.3,0.7,0.5c0.2,0.2,0.4,0.5,0.5,0.8C-753.1,264.5-753.1,264.8-753.1,265.2z M-754.2,265.2c0-0.5-0.1-0.9-0.3-1.1
		c-0.2-0.3-0.6-0.4-1.1-0.4c-0.1,0-0.2,0-0.3,0c-0.1,0-0.2,0-0.3,0.1v2.7c0.1,0.1,0.2,0.1,0.4,0.2c0.2,0.1,0.3,0.1,0.5,0.1
		c0.4,0,0.7-0.1,0.9-0.4C-754.3,266.1-754.2,265.7-754.2,265.2z"/>
</g>
<g>
	<g>
		<rect x="-1033.6" y="353.9" fill="#FFFFFF" width="286" height="49"/>
	</g>
	<g>
		<g>
			<polygon fill="#76C568" points="-746.7,356.1 -748.5,356.1 -748.5,354.8 -749.8,354.8 -749.8,353 -746.7,353 			"/>
		</g>
		<g>
			<path fill="#76C568" d="M-754.3,354.8h-4.5V353h4.5V354.8z M-763.2,354.8h-4.5V353h4.5V354.8z M-772.2,354.8h-4.5V353h4.5V354.8z
				 M-781.1,354.8h-4.5V353h4.5V354.8z M-790.1,354.8h-4.5V353h4.5V354.8z M-799,354.8h-4.5V353h4.5V354.8z M-807.9,354.8h-4.5V353
				h4.5V354.8z M-816.9,354.8h-4.5V353h4.5V354.8z M-825.8,354.8h-4.5V353h4.5V354.8z M-834.7,354.8h-4.5V353h4.5V354.8z
				 M-843.7,354.8h-4.5V353h4.5V354.8z M-852.6,354.8h-4.5V353h4.5V354.8z M-861.6,354.8h-4.5V353h4.5V354.8z M-870.5,354.8h-4.5
				V353h4.5V354.8z M-879.4,354.8h-4.5V353h4.5V354.8z M-888.4,354.8h-4.5V353h4.5V354.8z M-897.3,354.8h-4.5V353h4.5V354.8z
				 M-906.2,354.8h-4.5V353h4.5V354.8z M-915.2,354.8h-4.5V353h4.5V354.8z M-924.1,354.8h-4.5V353h4.5V354.8z M-933.1,354.8h-4.5
				V353h4.5V354.8z M-942,354.8h-4.5V353h4.5V354.8z M-950.9,354.8h-4.5V353h4.5V354.8z M-959.9,354.8h-4.5V353h4.5V354.8z
				 M-968.8,354.8h-4.5V353h4.5V354.8z M-977.7,354.8h-4.5V353h4.5V354.8z M-986.7,354.8h-4.5V353h4.5V354.8z M-995.6,354.8h-4.5
				V353h4.5V354.8z M-1004.6,354.8h-4.5V353h4.5V354.8z M-1013.5,354.8h-4.5V353h4.5V354.8z M-1022.4,354.8h-4.5V353h4.5V354.8z"/>
		</g>
		<g>
			<polygon fill="#76C568" points="-1032.7,356.1 -1034.5,356.1 -1034.5,353 -1031.4,353 -1031.4,354.8 -1032.7,354.8 			"/>
		</g>
		<g>
			<path fill="#76C568" d="M-1032.7,395.7h-1.8v-5h1.8V395.7z M-1032.7,385.8h-1.8v-5h1.8V385.8z M-1032.7,375.9h-1.8v-5h1.8V375.9z
				 M-1032.7,366h-1.8v-5h1.8V366z"/>
		</g>
		<g>
			<polygon fill="#76C568" points="-1031.4,403.8 -1034.5,403.8 -1034.5,400.7 -1032.7,400.7 -1032.7,402 -1031.4,402 			"/>
		</g>
		<g>
			<path fill="#76C568" d="M-754.3,403.8h-4.5V402h4.5V403.8z M-763.2,403.8h-4.5V402h4.5V403.8z M-772.2,403.8h-4.5V402h4.5V403.8z
				 M-781.1,403.8h-4.5V402h4.5V403.8z M-790.1,403.8h-4.5V402h4.5V403.8z M-799,403.8h-4.5V402h4.5V403.8z M-807.9,403.8h-4.5V402
				h4.5V403.8z M-816.9,403.8h-4.5V402h4.5V403.8z M-825.8,403.8h-4.5V402h4.5V403.8z M-834.7,403.8h-4.5V402h4.5V403.8z
				 M-843.7,403.8h-4.5V402h4.5V403.8z M-852.6,403.8h-4.5V402h4.5V403.8z M-861.6,403.8h-4.5V402h4.5V403.8z M-870.5,403.8h-4.5
				V402h4.5V403.8z M-879.4,403.8h-4.5V402h4.5V403.8z M-888.4,403.8h-4.5V402h4.5V403.8z M-897.3,403.8h-4.5V402h4.5V403.8z
				 M-906.2,403.8h-4.5V402h4.5V403.8z M-915.2,403.8h-4.5V402h4.5V403.8z M-924.1,403.8h-4.5V402h4.5V403.8z M-933.1,403.8h-4.5
				V402h4.5V403.8z M-942,403.8h-4.5V402h4.5V403.8z M-950.9,403.8h-4.5V402h4.5V403.8z M-959.9,403.8h-4.5V402h4.5V403.8z
				 M-968.8,403.8h-4.5V402h4.5V403.8z M-977.7,403.8h-4.5V402h4.5V403.8z M-986.7,403.8h-4.5V402h4.5V403.8z M-995.6,403.8h-4.5
				V402h4.5V403.8z M-1004.6,403.8h-4.5V402h4.5V403.8z M-1013.5,403.8h-4.5V402h4.5V403.8z M-1022.4,403.8h-4.5V402h4.5V403.8z"/>
		</g>
		<g>
			<polygon fill="#76C568" points="-746.7,403.8 -749.8,403.8 -749.8,402 -748.5,402 -748.5,400.7 -746.7,400.7 			"/>
		</g>
		<g>
			<path fill="#76C568" d="M-746.7,395.7h-1.8v-5h1.8V395.7z M-746.7,385.8h-1.8v-5h1.8V385.8z M-746.7,375.9h-1.8v-5h1.8V375.9z
				 M-746.7,366h-1.8v-5h1.8V366z"/>
		</g>
	</g>
</g>
<g>
	<path fill="#717877" d="M-948.5,380.6c0,0.9-0.1,1.7-0.4,2.5c-0.3,0.7-0.6,1.4-1.1,1.9s-1,0.9-1.7,1.2c-0.6,0.3-1.4,0.4-2.1,0.4
		c-0.8,0-1.5-0.1-2.1-0.4c-0.6-0.3-1.2-0.7-1.7-1.2s-0.8-1.2-1.1-1.9c-0.3-0.7-0.4-1.6-0.4-2.5c0-0.9,0.1-1.7,0.4-2.5
		c0.3-0.7,0.6-1.4,1.1-1.9c0.5-0.5,1-0.9,1.7-1.2c0.6-0.3,1.4-0.4,2.1-0.4c0.8,0,1.5,0.1,2.1,0.4c0.6,0.3,1.2,0.7,1.7,1.2
		c0.5,0.5,0.8,1.2,1.1,1.9C-948.7,378.9-948.5,379.7-948.5,380.6z M-950.1,380.6c0-1.5-0.3-2.6-1-3.5c-0.7-0.9-1.6-1.3-2.7-1.3
		c-1.2,0-2.1,0.4-2.7,1.3c-0.7,0.9-1,2-1,3.5c0,1.5,0.3,2.6,1,3.5c0.7,0.9,1.6,1.3,2.7,1.3c1.2,0,2.1-0.4,2.7-1.3
		C-950.4,383.2-950.1,382.1-950.1,380.6z"/>
	<path fill="#717877" d="M-945.4,375.2c0.4-0.1,1-0.3,1.8-0.4c0.7-0.1,1.6-0.2,2.7-0.2c0.9,0,1.6,0.1,2.2,0.4
		c0.6,0.3,1.1,0.6,1.4,1.1c0.4,0.5,0.6,1,0.8,1.7c0.1,0.7,0.2,1.4,0.2,2.2v6.5h-1.5v-6c0-0.8-0.1-1.5-0.2-2.1
		c-0.1-0.6-0.3-1-0.6-1.4c-0.3-0.4-0.6-0.6-1-0.8c-0.4-0.2-1-0.2-1.6-0.2c-0.7,0-1.3,0-1.8,0.1c-0.5,0.1-0.8,0.1-1,0.2v10.2h-1.5
		V375.2z"/>
	<path fill="#717877" d="M-932.5,386.4v-15.6h9v1.3h-7.5v5.4h6.6v1.3h-6.6v6.2h8v1.3H-932.5z"/>
	<path fill="#717877" d="M-920.1,375.2c0.4-0.1,1-0.3,1.7-0.4c0.7-0.1,1.6-0.2,2.7-0.2c0.9,0,1.6,0.1,2.2,0.4
		c0.6,0.3,1.1,0.6,1.4,1.1c0.4,0.5,0.6,1,0.8,1.7s0.2,1.4,0.2,2.2v6.5h-1.5v-6c0-0.8-0.1-1.5-0.2-2.1c-0.1-0.6-0.3-1-0.6-1.4
		c-0.3-0.4-0.6-0.6-1-0.8c-0.4-0.2-1-0.2-1.6-0.2c-0.7,0-1.3,0-1.8,0.1c-0.5,0.1-0.8,0.1-1,0.2v10.2h-1.5V375.2z"/>
	<path fill="#717877" d="M-898.1,386c-0.4,0.2-1,0.3-1.7,0.4c-0.7,0.1-1.5,0.2-2.6,0.2c-0.9,0-1.6-0.1-2.3-0.4
		c-0.7-0.3-1.3-0.7-1.8-1.2s-0.9-1.2-1.2-1.9c-0.3-0.7-0.4-1.6-0.4-2.5c0-0.9,0.1-1.7,0.3-2.4c0.2-0.7,0.6-1.4,1-1.9
		c0.4-0.5,1-1,1.6-1.3c0.7-0.3,1.4-0.4,2.2-0.4c0.8,0,1.4,0.1,2,0.3s1,0.4,1.2,0.6v-6.2l1.5-0.3V386z M-899.6,376.9
		c-0.1-0.1-0.3-0.2-0.5-0.3c-0.2-0.1-0.4-0.2-0.7-0.3c-0.3-0.1-0.6-0.2-0.9-0.3c-0.3-0.1-0.6-0.1-1-0.1c-0.7,0-1.3,0.1-1.8,0.4
		c-0.5,0.3-0.9,0.6-1.2,1c-0.3,0.4-0.5,0.9-0.7,1.5c-0.1,0.6-0.2,1.2-0.2,1.8c0,1.5,0.4,2.7,1.1,3.5c0.8,0.8,1.8,1.2,3,1.2
		c0.7,0,1.3,0,1.7-0.1c0.4-0.1,0.8-0.1,1-0.2V376.9z"/>
	<path fill="#717877" d="M-890.8,385.4c1.2,0,2.2-0.2,2.8-0.7c0.7-0.4,1-1.2,1-2.1c0-0.6-0.1-1-0.3-1.4s-0.5-0.7-0.9-1
		c-0.4-0.3-0.8-0.5-1.2-0.7c-0.5-0.2-0.9-0.4-1.5-0.6c-0.6-0.3-1.2-0.5-1.7-0.8c-0.5-0.3-0.9-0.6-1.3-0.9c-0.4-0.3-0.6-0.7-0.8-1.2
		c-0.2-0.4-0.3-0.9-0.3-1.5c0-1.3,0.4-2.3,1.3-3s2.1-1,3.7-1c0.4,0,0.8,0,1.2,0.1c0.4,0.1,0.8,0.1,1.1,0.2c0.4,0.1,0.7,0.2,1,0.3
		c0.3,0.1,0.5,0.2,0.7,0.4l-0.5,1.3c-0.4-0.3-1-0.5-1.6-0.7c-0.6-0.2-1.3-0.3-2-0.3c-0.5,0-0.9,0-1.4,0.1c-0.4,0.1-0.8,0.3-1.1,0.5
		c-0.3,0.2-0.5,0.5-0.7,0.8c-0.2,0.3-0.3,0.7-0.3,1.2c0,0.5,0.1,0.9,0.3,1.2c0.2,0.3,0.4,0.6,0.8,0.9c0.3,0.2,0.7,0.5,1.1,0.7
		c0.4,0.2,0.9,0.4,1.4,0.6c0.6,0.3,1.2,0.5,1.7,0.8c0.5,0.3,1,0.6,1.4,0.9c0.4,0.3,0.7,0.8,1,1.3c0.2,0.5,0.4,1.1,0.4,1.8
		c0,1.4-0.5,2.5-1.5,3.2s-2.3,1.1-4,1.1c-0.6,0-1.1,0-1.6-0.1c-0.5-0.1-0.9-0.2-1.3-0.3c-0.4-0.1-0.7-0.2-1-0.3
		c-0.3-0.1-0.5-0.2-0.6-0.3l0.5-1.3c0.2,0.1,0.4,0.2,0.6,0.3c0.3,0.1,0.6,0.2,0.9,0.3c0.3,0.1,0.7,0.2,1.2,0.3
		C-891.8,385.4-891.3,385.4-890.8,385.4z"/>
	<path fill="#717877" d="M-873.7,386c-0.4,0.1-1,0.3-1.8,0.4c-0.7,0.1-1.6,0.2-2.7,0.2c-0.9,0-1.6-0.1-2.2-0.4
		c-0.6-0.3-1.1-0.6-1.4-1.1c-0.4-0.5-0.6-1-0.8-1.7c-0.2-0.7-0.2-1.4-0.2-2.2v-6.5h1.5v6c0,0.8,0.1,1.5,0.2,2.1
		c0.1,0.6,0.3,1,0.6,1.4c0.3,0.4,0.6,0.6,1,0.8c0.4,0.2,0.9,0.2,1.6,0.2c0.7,0,1.3,0,1.8-0.1c0.5-0.1,0.8-0.1,1-0.2v-10.2h1.5V386z"
		/>
	<path fill="#717877" d="M-868.4,375.5c0.3-0.2,0.7-0.4,1.2-0.6c0.6-0.2,1.2-0.3,2-0.3c0.8,0,1.6,0.1,2.2,0.4
		c0.7,0.3,1.2,0.7,1.7,1.3c0.4,0.5,0.8,1.2,1,1.9c0.2,0.7,0.3,1.6,0.3,2.4c0,0.9-0.1,1.8-0.4,2.5c-0.3,0.7-0.7,1.4-1.2,1.9
		c-0.5,0.5-1.1,0.9-1.8,1.2c-0.7,0.3-1.5,0.4-2.3,0.4c-1,0-1.9-0.1-2.6-0.2c-0.7-0.1-1.2-0.3-1.7-0.4v-16.8l1.5-0.3V375.5z
		 M-868.4,385c0.2,0.1,0.6,0.1,1,0.2c0.4,0.1,1,0.1,1.7,0.1c1.3,0,2.3-0.4,3-1.2c0.8-0.8,1.1-2,1.1-3.5c0-0.6-0.1-1.3-0.2-1.8
		c-0.1-0.6-0.4-1.1-0.7-1.5c-0.3-0.4-0.7-0.8-1.2-1c-0.5-0.3-1.1-0.4-1.8-0.4c-0.3,0-0.7,0-1,0.1c-0.3,0.1-0.6,0.2-0.9,0.3
		c-0.3,0.1-0.5,0.2-0.7,0.3c-0.2,0.1-0.4,0.2-0.5,0.3V385z"/>
	<path fill="#717877" d="M-856.8,375.2c0.4-0.1,1-0.3,1.7-0.4c0.7-0.1,1.6-0.2,2.7-0.2c1.5,0,2.5,0.4,3.2,1.3
		c0.1-0.1,0.2-0.2,0.4-0.3s0.5-0.3,0.8-0.4c0.3-0.2,0.7-0.3,1.2-0.4c0.4-0.1,0.9-0.2,1.5-0.2c0.9,0,1.6,0.1,2.1,0.4
		c0.5,0.3,1,0.6,1.3,1.1c0.3,0.5,0.5,1,0.6,1.7c0.1,0.7,0.2,1.4,0.2,2.2v6.5h-1.5v-6c0-0.8,0-1.4-0.1-2c-0.1-0.6-0.2-1-0.4-1.4
		c-0.2-0.4-0.5-0.6-0.9-0.8c-0.4-0.2-0.9-0.3-1.5-0.3c-0.4,0-0.9,0-1.2,0.1c-0.4,0.1-0.7,0.2-1,0.3c-0.3,0.1-0.5,0.2-0.7,0.4
		c-0.2,0.1-0.3,0.2-0.4,0.3c0.1,0.4,0.2,0.8,0.3,1.3c0.1,0.5,0.1,1,0.1,1.5v6.6h-1.5v-6c0-0.8,0-1.4-0.1-2c-0.1-0.6-0.2-1-0.4-1.4
		c-0.2-0.4-0.5-0.6-0.9-0.8c-0.4-0.2-0.9-0.3-1.5-0.3c-0.7,0-1.3,0-1.8,0.1s-0.8,0.1-0.9,0.2v10.2h-1.5V375.2z"/>
	<path fill="#717877" d="M-835.6,371.3c0,0.3-0.1,0.6-0.3,0.8c-0.2,0.2-0.5,0.3-0.8,0.3c-0.3,0-0.6-0.1-0.8-0.3
		c-0.2-0.2-0.3-0.5-0.3-0.8s0.1-0.6,0.3-0.8c0.2-0.2,0.5-0.3,0.8-0.3c0.3,0,0.6,0.1,0.8,0.3C-835.7,370.7-835.6,370.9-835.6,371.3z
		 M-835.9,386.4h-1.5v-11.6h1.5V386.4z"/>
	<path fill="#717877" d="M-830.7,374.8h4.6v1.2h-4.6v6.2c0,0.7,0.1,1.2,0.2,1.6c0.1,0.4,0.3,0.7,0.5,1c0.2,0.2,0.5,0.4,0.8,0.4
		c0.3,0.1,0.6,0.1,1,0.1c0.6,0,1.1-0.1,1.5-0.2c0.4-0.1,0.7-0.3,0.9-0.4l0.4,1.2c-0.2,0.1-0.6,0.3-1.1,0.5s-1.1,0.3-1.7,0.3
		c-0.7,0-1.3-0.1-1.8-0.3c-0.5-0.2-0.9-0.5-1.2-0.9c-0.3-0.4-0.5-0.9-0.6-1.4c-0.1-0.6-0.2-1.2-0.2-2v-10.7l1.5-0.3V374.8z"/>
</g>
<g>
	<g>
		<rect x="-891.7" y="317.8" fill="#76C568" width="2.2" height="18.8"/>
	</g>
	<g>
		<g>
			<polygon fill="#76C568" points="-895.1,335.3 -890.6,343 -886.1,335.3 			"/>
		</g>
	</g>
</g>
<g>
	<path fill="#76C568" d="M-767.4,365.2c0,0.4,0,0.7-0.1,1c-0.1,0.3-0.2,0.6-0.4,0.8c-0.2,0.2-0.4,0.4-0.7,0.5
		c-0.3,0.1-0.6,0.2-0.9,0.2c-0.2,0-0.4,0-0.6-0.1c-0.2-0.1-0.3-0.1-0.5-0.2v1.8h-1.1V363c0.2-0.1,0.5-0.1,0.8-0.2
		c0.3-0.1,0.7-0.1,1-0.1c0.4,0,0.7,0.1,1,0.2c0.3,0.1,0.5,0.3,0.7,0.5c0.2,0.2,0.4,0.5,0.5,0.8
		C-767.4,364.5-767.4,364.8-767.4,365.2z M-768.5,365.2c0-0.5-0.1-0.9-0.3-1.1c-0.2-0.3-0.6-0.4-1.1-0.4c-0.1,0-0.2,0-0.3,0
		c-0.1,0-0.2,0-0.3,0.1v2.7c0.1,0.1,0.2,0.1,0.4,0.2c0.2,0.1,0.3,0.1,0.5,0.1c0.4,0,0.7-0.1,0.9-0.4
		C-768.6,366-768.5,365.6-768.5,365.2z"/>
	<path fill="#76C568" d="M-763.6,363.8c-0.1,0-0.2-0.1-0.4-0.1c-0.2,0-0.3,0-0.6,0c-0.1,0-0.2,0-0.4,0c-0.1,0-0.2,0-0.3,0.1v3.8
		h-1.1V363c0.2-0.1,0.5-0.2,0.8-0.2s0.7-0.1,1-0.1c0.1,0,0.2,0,0.3,0c0.1,0,0.2,0,0.3,0s0.2,0,0.3,0.1s0.2,0,0.2,0.1L-763.6,363.8z"
		/>
	<path fill="#76C568" d="M-758.4,365.2c0,0.4-0.1,0.7-0.2,1c-0.1,0.3-0.3,0.6-0.5,0.8c-0.2,0.2-0.4,0.4-0.7,0.5
		c-0.3,0.1-0.6,0.2-0.9,0.2c-0.3,0-0.6-0.1-0.9-0.2c-0.3-0.1-0.5-0.3-0.7-0.5c-0.2-0.2-0.4-0.5-0.5-0.8c-0.1-0.3-0.2-0.6-0.2-1
		c0-0.4,0.1-0.7,0.2-1c0.1-0.3,0.3-0.6,0.5-0.8c0.2-0.2,0.4-0.4,0.7-0.5c0.3-0.1,0.6-0.2,0.9-0.2c0.3,0,0.6,0.1,0.9,0.2
		c0.3,0.1,0.5,0.3,0.7,0.5c0.2,0.2,0.4,0.5,0.5,0.8C-758.5,364.5-758.4,364.8-758.4,365.2z M-759.5,365.2c0-0.5-0.1-0.8-0.3-1.1
		c-0.2-0.3-0.5-0.4-0.8-0.4c-0.4,0-0.6,0.1-0.8,0.4c-0.2,0.3-0.3,0.6-0.3,1.1c0,0.5,0.1,0.8,0.3,1.1c0.2,0.3,0.5,0.4,0.8,0.4
		c0.4,0,0.6-0.1,0.8-0.4C-759.6,366-759.5,365.6-759.5,365.2z"/>
	<path fill="#76C568" d="M-753.1,365.2c0,0.4,0,0.7-0.1,1c-0.1,0.3-0.2,0.6-0.4,0.8s-0.4,0.4-0.7,0.5c-0.3,0.1-0.6,0.2-0.9,0.2
		c-0.2,0-0.4,0-0.6-0.1c-0.2-0.1-0.3-0.1-0.5-0.2v1.8h-1.1V363c0.2-0.1,0.5-0.1,0.8-0.2c0.3-0.1,0.7-0.1,1-0.1c0.4,0,0.7,0.1,1,0.2
		c0.3,0.1,0.5,0.3,0.7,0.5c0.2,0.2,0.4,0.5,0.5,0.8C-753.1,364.5-753.1,364.8-753.1,365.2z M-754.2,365.2c0-0.5-0.1-0.9-0.3-1.1
		c-0.2-0.3-0.6-0.4-1.1-0.4c-0.1,0-0.2,0-0.3,0c-0.1,0-0.2,0-0.3,0.1v2.7c0.1,0.1,0.2,0.1,0.4,0.2c0.2,0.1,0.3,0.1,0.5,0.1
		c0.4,0,0.7-0.1,0.9-0.4C-754.3,366-754.2,365.6-754.2,365.2z"/>
</g>
<g>
	<rect x="-891.7" y="217.8" fill="#76C568" width="2.2" height="2.4"/>
	<rect x="-891.7" y="222.7" fill="#76C568" width="2.2" height="2.9"/>
	<rect x="-891.7" y="233.4" fill="#76C568" width="2.2" height="3.3"/>
	<rect x="-891.7" y="228" fill="#76C568" width="2.2" height="2.9"/>
</g>
<g>
	<g>
		<polygon fill="#76C568" points="-681.6,111.6 -676.1,121.1 -670.6,111.6 		"/>
	</g>
</g>
<g>
	<rect x="-677.5" y="90" fill="#76C568" width="2.8" height="3"/>
	<rect x="-677.5" y="96.1" fill="#76C568" width="2.8" height="3.6"/>
	<rect x="-677.5" y="109.2" fill="#76C568" width="2.8" height="4"/>
	<rect x="-677.5" y="102.6" fill="#76C568" width="2.8" height="3.6"/>
</g>
<g>
	<path fill="#76C568" d="M-644.8,101c0,0.9-0.1,1.7-0.4,2.3c-0.3,0.7-0.6,1.2-1.1,1.7c-0.5,0.5-1,0.8-1.6,1
		c-0.6,0.2-1.2,0.3-1.9,0.3c-0.7,0-1.3-0.1-1.9-0.3c-0.6-0.2-1.1-0.6-1.6-1c-0.5-0.5-0.8-1-1.1-1.7s-0.4-1.5-0.4-2.3
		s0.1-1.7,0.4-2.3c0.3-0.7,0.6-1.2,1.1-1.7c0.5-0.5,1-0.8,1.6-1s1.2-0.3,1.9-0.3c0.7,0,1.3,0.1,1.9,0.3c0.6,0.2,1.1,0.6,1.6,1
		c0.5,0.5,0.8,1,1.1,1.7C-644.9,99.4-644.8,100.1-644.8,101z M-652.8,101c0,0.6,0.1,1.1,0.2,1.5c0.1,0.5,0.3,0.9,0.6,1.2
		c0.3,0.3,0.6,0.6,1,0.8s0.8,0.3,1.3,0.3c0.5,0,0.9-0.1,1.3-0.3s0.7-0.4,1-0.8c0.3-0.3,0.5-0.7,0.6-1.2c0.1-0.5,0.2-1,0.2-1.5
		c0-0.6-0.1-1.1-0.2-1.5c-0.1-0.5-0.3-0.9-0.6-1.2c-0.3-0.3-0.6-0.6-1-0.8s-0.8-0.3-1.3-0.3c-0.5,0-0.9,0.1-1.3,0.3s-0.7,0.4-1,0.8
		c-0.3,0.3-0.5,0.7-0.6,1.2C-652.7,99.9-652.8,100.4-652.8,101z"/>
	<path fill="#76C568" d="M-635.8,102.3c0,0.6-0.1,1.1-0.2,1.6c-0.2,0.5-0.4,0.9-0.7,1.3c-0.3,0.4-0.6,0.6-1.1,0.8s-0.9,0.3-1.5,0.3
		c-0.4,0-0.7,0-1-0.1s-0.6-0.2-0.8-0.3v3h-1.8V98.6c0.4-0.1,0.8-0.2,1.4-0.3c0.5-0.1,1.1-0.1,1.7-0.1c0.6,0,1.2,0.1,1.6,0.3
		c0.5,0.2,0.9,0.5,1.2,0.8c0.3,0.4,0.6,0.8,0.8,1.3C-635.9,101.1-635.8,101.7-635.8,102.3z M-637.7,102.3c0-0.8-0.2-1.4-0.5-1.9
		c-0.4-0.4-0.9-0.7-1.7-0.7c-0.2,0-0.3,0-0.5,0c-0.2,0-0.4,0-0.5,0.1v4.4c0.2,0.1,0.4,0.2,0.6,0.3c0.3,0.1,0.5,0.1,0.8,0.1
		c0.7,0,1.1-0.2,1.4-0.7C-637.8,103.7-637.7,103.1-637.7,102.3z"/>
	<path fill="#76C568" d="M-634,96.3l1.8-0.3v2.3h2.8v1.5h-2.8v3.2c0,0.6,0.1,1.1,0.3,1.3c0.2,0.3,0.5,0.4,1,0.4c0.3,0,0.6,0,0.9-0.1
		c0.3-0.1,0.5-0.1,0.6-0.2l0.3,1.4c-0.2,0.1-0.5,0.2-0.8,0.3c-0.3,0.1-0.7,0.1-1.2,0.1c-0.6,0-1-0.1-1.4-0.2
		c-0.4-0.1-0.7-0.4-0.9-0.6c-0.2-0.3-0.4-0.6-0.5-1c-0.1-0.4-0.1-0.9-0.1-1.4V96.3z"/>
	<path fill="#76C568" d="M-625.7,96.1c0,0.3-0.1,0.6-0.3,0.8s-0.5,0.3-0.8,0.3c-0.3,0-0.6-0.1-0.8-0.3s-0.3-0.5-0.3-0.8
		c0-0.3,0.1-0.6,0.3-0.8s0.5-0.3,0.8-0.3c0.3,0,0.6,0.1,0.8,0.3S-625.7,95.8-625.7,96.1z M-625.9,106.2h-1.8v-7.8h1.8V106.2z"/>
	<path fill="#76C568" d="M-616.6,102.3c0,0.6-0.1,1.2-0.3,1.7s-0.4,0.9-0.8,1.3c-0.3,0.4-0.7,0.6-1.2,0.8c-0.5,0.2-1,0.3-1.5,0.3
		c-0.6,0-1.1-0.1-1.5-0.3c-0.5-0.2-0.8-0.5-1.2-0.8c-0.3-0.4-0.6-0.8-0.8-1.3c-0.2-0.5-0.3-1.1-0.3-1.7c0-0.6,0.1-1.2,0.3-1.7
		c0.2-0.5,0.4-0.9,0.8-1.3c0.3-0.4,0.7-0.6,1.2-0.8c0.5-0.2,1-0.3,1.5-0.3s1,0.1,1.5,0.3c0.5,0.2,0.9,0.5,1.2,0.8
		c0.3,0.4,0.6,0.8,0.8,1.3C-616.7,101.1-616.6,101.7-616.6,102.3z M-618.5,102.3c0-0.8-0.2-1.4-0.5-1.8c-0.3-0.5-0.8-0.7-1.4-0.7
		c-0.6,0-1.1,0.2-1.4,0.7c-0.3,0.5-0.5,1.1-0.5,1.8c0,0.8,0.2,1.4,0.5,1.9c0.3,0.5,0.8,0.7,1.4,0.7c0.6,0,1.1-0.2,1.4-0.7
		C-618.6,103.7-618.5,103.1-618.5,102.3z"/>
	<path fill="#76C568" d="M-614.8,98.6c0.3-0.1,0.8-0.2,1.4-0.3c0.6-0.1,1.2-0.1,1.8-0.1c0.6,0,1.2,0.1,1.6,0.3
		c0.4,0.2,0.8,0.4,1,0.7c0.3,0.3,0.4,0.7,0.5,1.1s0.2,0.9,0.2,1.4v4.4h-1.8v-4.1c0-0.4,0-0.8-0.1-1.1c-0.1-0.3-0.1-0.5-0.3-0.7
		c-0.1-0.2-0.3-0.3-0.5-0.4c-0.2-0.1-0.5-0.1-0.8-0.1c-0.2,0-0.5,0-0.7,0c-0.2,0-0.4,0.1-0.5,0.1v6.3h-1.8V98.6z"/>
	<path fill="#76C568" d="M-603.5,98.2c0.6,0,1.1,0.1,1.5,0.2s0.7,0.4,1,0.6c0.2,0.3,0.4,0.6,0.5,1s0.2,0.8,0.2,1.3v4.7
		c-0.3,0.1-0.7,0.1-1.3,0.2c-0.6,0.1-1.2,0.1-1.9,0.1c-0.5,0-0.9,0-1.3-0.1c-0.4-0.1-0.7-0.2-1-0.4c-0.3-0.2-0.5-0.5-0.6-0.8
		c-0.2-0.3-0.2-0.7-0.2-1.2c0-0.4,0.1-0.8,0.3-1.1s0.4-0.6,0.7-0.8c0.3-0.2,0.6-0.3,1-0.4c0.4-0.1,0.8-0.1,1.2-0.1
		c0.2,0,0.4,0,0.6,0c0.2,0,0.5,0.1,0.7,0.1v-0.3c0-0.2,0-0.4-0.1-0.6c0-0.2-0.1-0.4-0.3-0.5c-0.1-0.1-0.3-0.3-0.5-0.3
		c-0.2-0.1-0.5-0.1-0.8-0.1c-0.4,0-0.8,0-1.1,0.1c-0.3,0.1-0.6,0.1-0.8,0.2l-0.2-1.5c0.2-0.1,0.6-0.2,1-0.2
		C-604.4,98.2-604,98.2-603.5,98.2z M-603.3,104.9c0.6,0,1,0,1.3-0.1v-2c-0.1,0-0.2-0.1-0.4-0.1c-0.2,0-0.4,0-0.6,0
		c-0.2,0-0.4,0-0.6,0c-0.2,0-0.4,0.1-0.6,0.2c-0.2,0.1-0.3,0.2-0.4,0.3c-0.1,0.1-0.1,0.3-0.1,0.5c0,0.4,0.1,0.7,0.4,0.9
		C-604.1,104.8-603.8,104.9-603.3,104.9z"/>
	<path fill="#76C568" d="M-595.4,106.3c-0.5,0-1-0.1-1.3-0.2s-0.6-0.3-0.8-0.5c-0.2-0.2-0.4-0.5-0.4-0.8c-0.1-0.3-0.1-0.6-0.1-1
		v-8.9l1.8-0.3v8.9c0,0.2,0,0.4,0.1,0.5c0,0.1,0.1,0.3,0.2,0.4c0.1,0.1,0.2,0.2,0.4,0.2c0.2,0.1,0.3,0.1,0.6,0.1L-595.4,106.3z"/>
</g>
</svg>
